<?xml version="1.0" encoding="UTF-8" standalone="no"?>
<!-- Created with Inkscape (http://www.inkscape.org/) -->

<svg
   width="150"
   height="150"
   viewBox="0 0 39.6875 39.687499"
   version="1.1"
   id="svg1"
   inkscape:version="1.4 (e7c3feb, 2024-10-09)"
   xml:space="preserve"
   sodipodi:docname="building.svg"
   inkscape:export-filename="DocsMockup6.png"
   inkscape:export-xdpi="96"
   inkscape:export-ydpi="96"
   xmlns:inkscape="http://www.inkscape.org/namespaces/inkscape"
   xmlns:sodipodi="http://sodipodi.sourceforge.net/DTD/sodipodi-0.dtd"
   xmlns:xlink="http://www.w3.org/1999/xlink"
   xmlns="http://www.w3.org/2000/svg"
   xmlns:svg="http://www.w3.org/2000/svg"><sodipodi:namedview
     id="namedview1"
     pagecolor="#000000"
     bordercolor="#000000"
     borderopacity="0.25"
     inkscape:showpageshadow="2"
     inkscape:pageopacity="0.0"
     inkscape:pagecheckerboard="0"
     inkscape:deskcolor="#d1d1d1"
     inkscape:document-units="px"
     inkscape:zoom="5.3333332"
     inkscape:cx="75.093752"
     inkscape:cy="75.000002"
     inkscape:window-width="1920"
     inkscape:window-height="1003"
     inkscape:window-x="0"
     inkscape:window-y="0"
     inkscape:window-maximized="1"
     inkscape:current-layer="layer1"><inkscape:page
       x="0"
       y="0"
       width="39.6875"
       height="39.6875"
       id="page2"
       margin="0"
       bleed="0" /></sodipodi:namedview><defs
     id="defs1"><linearGradient
   id="linearGradient5"
   inkscape:collect="always"><stop
     style="stop-color:#ffffff;stop-opacity:1;"
     offset="0"
     id="stop7" /><stop
     style="stop-color:#d6740e;stop-opacity:1;"
     offset="1"
     id="stop6" /></linearGradient><linearGradient
   id="linearGradient2"
   inkscape:collect="always"><stop
     style="stop-color:#d6740e;stop-opacity:1;"
     offset="0"
     id="stop2" /><stop
     style="stop-color:#ffffff;stop-opacity:1;"
     offset="0.25"
     id="stop5" /><stop
     style="stop-color:#ffffff;stop-opacity:1;"
     offset="0.5"
     id="stop4" /><stop
     style="stop-color:#ffffff;stop-opacity:1;"
     offset="1"
     id="stop3" /></linearGradient><style
   type="text/css"
   id="style1">
    .fil167 {fill:url(#kh);fill-rule:nonzero}
    .fil76 {fill:url(#ki);fill-rule:nonzero}
    .fil11 {fill:url(#ot);fill-rule:nonzero}
    .fil189 {fill:url(#sh);fill-rule:nonzero}
    .fil188 {fill:url(#ss);fill-rule:nonzero}
    .fil18 {fill:url(#td);fill-rule:nonzero}
    .fil14 {fill:url(#tp);fill-rule:nonzero}
    .fil91 {fill:url(#ua);fill-rule:nonzero}
    .fil257 {fill:url(#jv);fill-rule:nonzero}
    .fil245 {fill:url(#kg);fill-rule:nonzero}
    .fil139 {fill:url(#kj);fill-rule:nonzero}
    .fil262 {fill:url(#ku);fill-rule:nonzero}
    .fil263 {fill:url(#lg);fill-rule:nonzero}
    .fil79 {fill:url(#lr);fill-rule:nonzero}
    .fil168 {fill:url(#md);fill-rule:nonzero}
    .fil249 {fill:url(#mo);fill-rule:nonzero}
    .fil36 {fill:url(#mz);fill-rule:nonzero}
    .fil63 {fill:url(#nl);fill-rule:nonzero}
    .fil89 {fill:url(#nw);fill-rule:nonzero}
    .fil242 {fill:url(#oi);fill-rule:nonzero}
    .fil141 {fill:url(#ou);fill-rule:nonzero}
    .fil62 {fill:url(#pg);fill-rule:nonzero}
    .fil88 {fill:url(#pr);fill-rule:nonzero}
    .fil240 {fill:url(#qc);fill-rule:nonzero}
    .fil247 {fill:url(#qo);fill-rule:nonzero}
    .fil140 {fill:url(#qz);fill-rule:nonzero}
    .fil147 {fill:url(#rl);fill-rule:nonzero}
    .fil205 {fill:url(#rw);fill-rule:nonzero}
    .fil67 {fill:url(#se);fill-rule:nonzero}
    .fil124 {fill:url(#sg);fill-rule:nonzero}
    .fil264 {fill:url(#si);fill-rule:nonzero}
    .fil178 {fill:url(#sj);fill-rule:nonzero}
    .fil5 {fill:url(#sk);fill-rule:nonzero}
    .fil142 {fill:url(#sl);fill-rule:nonzero}
    .fil183 {fill:url(#sm);fill-rule:nonzero}
    .fil181 {fill:url(#sn);fill-rule:nonzero}
    .fil1 {fill:url(#so);fill-rule:nonzero}
    .fil112 {fill:url(#sp);fill-rule:nonzero}
    .fil111 {fill:url(#sq);fill-rule:nonzero}
    .fil43 {fill:url(#sr);fill-rule:nonzero}
    .fil155 {fill:url(#st);fill-rule:nonzero}
    .fil216 {fill:url(#su);fill-rule:nonzero}
    .fil180 {fill:url(#sv);fill-rule:nonzero}
    .fil187 {fill:url(#sw);fill-rule:nonzero}
    .fil9 {fill:url(#sx);fill-rule:nonzero}
    .fil118 {fill:url(#sy);fill-rule:nonzero}
    .fil119 {fill:url(#sz);fill-rule:nonzero}
    .fil52 {fill:url(#ta);fill-rule:nonzero}
    .fil221 {fill:url(#tb);fill-rule:nonzero}
    .fil177 {fill:url(#tc);fill-rule:nonzero}
    .fil276 {fill:url(#te);fill-rule:nonzero}
    .fil94 {fill:url(#tf);fill-rule:nonzero}
    .fil16 {fill:url(#th);fill-rule:nonzero}
    .fil95 {fill:url(#ti);fill-rule:nonzero}
    .fil203 {fill:url(#tj);fill-rule:nonzero}
    .fil248 {fill:url(#tk);fill-rule:nonzero}
    .fil185 {fill:url(#tl);fill-rule:nonzero}
    .fil54 {fill:url(#tm);fill-rule:nonzero}
    .fil265 {fill:url(#tn);fill-rule:nonzero}
    .fil93 {fill:url(#to);fill-rule:nonzero}
    .fil250 {fill:url(#tq);fill-rule:nonzero}
    .fil41 {fill:url(#tr);fill-rule:nonzero}
    .fil44 {fill:url(#ts);fill-rule:nonzero}
    .fil83 {fill:url(#tt);fill-rule:nonzero}
    .fil82 {fill:url(#tu);fill-rule:nonzero}
    .fil223 {fill:url(#tv);fill-rule:nonzero}
    .fil191 {fill:url(#tw);fill-rule:nonzero}
    .fil27 {fill:url(#tx);fill-rule:nonzero}
    .fil134 {fill:url(#ty);fill-rule:nonzero}
    .fil34 {fill:url(#tz);fill-rule:nonzero}
    .fil7 {fill:url(#ub);fill-rule:nonzero}
    .fil193 {fill:url(#uc);fill-rule:nonzero}
    .fil184 {fill:url(#ud);fill-rule:nonzero}
    .fil137 {fill:url(#ue);fill-rule:nonzero}
    .fil56 {fill:url(#uf);fill-rule:nonzero}
    .fil116 {fill:url(#ug);fill-rule:nonzero}
    .fil29 {fill:url(#jr);fill-rule:nonzero}
    .fil201 {fill:url(#js);fill-rule:nonzero}
    .fil239 {fill:url(#jt);fill-rule:nonzero}
    .fil74 {fill:url(#ju);fill-rule:nonzero}
    .fil130 {fill:url(#jw);fill-rule:nonzero}
    .fil179 {fill:url(#jx);fill-rule:nonzero}
    .fil170 {fill:url(#jy);fill-rule:nonzero}
    .fil98 {fill:url(#jz);fill-rule:nonzero}
    .fil251 {fill:url(#ka);fill-rule:nonzero}
    .fil207 {fill:url(#kb);fill-rule:nonzero}
    .fil243 {fill:url(#kc);fill-rule:nonzero}
    .fil159 {fill:url(#kd);fill-rule:nonzero}
    .fil153 {fill:url(#ke);fill-rule:nonzero}
    .fil0 {fill:url(#kf);fill-rule:nonzero}
    .fil136 {fill:url(#ky);fill-rule:nonzero}
    .fil274 {fill:url(#lz);fill-rule:nonzero}
    .fil266 {fill:url(#na);fill-rule:nonzero}
    .fil253 {fill:url(#ob);fill-rule:nonzero}
    .fil200 {fill:url(#pc);fill-rule:nonzero}
    .fil106 {fill:url(#qd);fill-rule:nonzero}
    .fil198 {fill:url(#re);fill-rule:nonzero}
    .fil42 {fill:url(#sf);fill-rule:nonzero}
    .fil4 {fill:url(#tg);fill-rule:nonzero}
    .fil152 {fill:url(#uh);fill-rule:nonzero}
    .fil219 {fill:url(#kk);fill-rule:nonzero}
    .fil47 {fill:url(#kl);fill-rule:nonzero}
    .fil64 {fill:url(#km);fill-rule:nonzero}
    .fil48 {fill:url(#kn);fill-rule:nonzero}
    .fil30 {fill:url(#ko);fill-rule:nonzero}
    .fil49 {fill:url(#kp);fill-rule:nonzero}
    .fil32 {fill:url(#kq);fill-rule:nonzero}
    .fil55 {fill:url(#kr);fill-rule:nonzero}
    .fil3 {fill:url(#ks);fill-rule:nonzero}
    .fil26 {fill:url(#kt);fill-rule:nonzero}
    .fil258 {fill:url(#kv);fill-rule:nonzero}
    .fil127 {fill:url(#kw);fill-rule:nonzero}
    .fil164 {fill:url(#kx);fill-rule:nonzero}
    .fil163 {fill:url(#kz);fill-rule:nonzero}
    .fil40 {fill:url(#la);fill-rule:nonzero}
    .fil57 {fill:url(#lb);fill-rule:nonzero}
    .fil202 {fill:url(#lc);fill-rule:nonzero}
    .fil28 {fill:url(#ld);fill-rule:nonzero}
    .fil261 {fill:url(#le);fill-rule:nonzero}
    .fil120 {fill:url(#lf);fill-rule:nonzero}
    .fil143 {fill:url(#lh);fill-rule:nonzero}
    .fil161 {fill:url(#li);fill-rule:nonzero}
    .fil226 {fill:url(#lj);fill-rule:nonzero}
    .fil125 {fill:url(#lk);fill-rule:nonzero}
    .fil270 {fill:url(#ll);fill-rule:nonzero}
    .fil173 {fill:url(#lm);fill-rule:nonzero}
    .fil53 {fill:url(#ln);fill-rule:nonzero}
    .fil195 {fill:url(#lo);fill-rule:nonzero}
    .fil80 {fill:url(#lp);fill-rule:nonzero}
    .fil236 {fill:url(#lq);fill-rule:nonzero}
    .fil268 {fill:url(#ls);fill-rule:nonzero}
    .fil66 {fill:url(#lt);fill-rule:nonzero}
    .fil65 {fill:url(#lu);fill-rule:nonzero}
    .fil215 {fill:url(#lv);fill-rule:nonzero}
    .fil256 {fill:url(#lw);fill-rule:nonzero}
    .fil227 {fill:url(#lx);fill-rule:nonzero}
    .fil174 {fill:url(#ly);fill-rule:nonzero}
    .fil146 {fill:url(#ma);fill-rule:nonzero}
    .fil121 {fill:url(#mb);fill-rule:nonzero}
    .fil230 {fill:url(#mc);fill-rule:nonzero}
    .fil78 {fill:url(#me);fill-rule:nonzero}
    .fil235 {fill:url(#mf);fill-rule:nonzero}
    .fil105 {fill:url(#mg);fill-rule:nonzero}
    .fil21 {fill:url(#mh);fill-rule:nonzero}
    .fil131 {fill:url(#mi);fill-rule:nonzero}
    .fil206 {fill:url(#mj);fill-rule:nonzero}
    .fil214 {fill:url(#mk);fill-rule:nonzero}
    .fil20 {fill:url(#ml);fill-rule:nonzero}
    .fil110 {fill:url(#mm);fill-rule:nonzero}
    .fil271 {fill:url(#mn);fill-rule:nonzero}
    .fil126 {fill:url(#mp);fill-rule:nonzero}
    .fil35 {fill:url(#mq);fill-rule:nonzero}
    .fil96 {fill:url(#mr);fill-rule:nonzero}
    .fil69 {fill:url(#ms);fill-rule:nonzero}
    .fil87 {fill:url(#mt);fill-rule:nonzero}
    .fil145 {fill:url(#mu);fill-rule:nonzero}
    .fil175 {fill:url(#mv);fill-rule:nonzero}
    .fil210 {fill:url(#mw);fill-rule:nonzero}
    .fil212 {fill:url(#mx);fill-rule:nonzero}
    .fil197 {fill:url(#my);fill-rule:nonzero}
    .fil208 {fill:url(#nb);fill-rule:nonzero}
    .fil225 {fill:url(#nc);fill-rule:nonzero}
    .fil190 {fill:url(#nd);fill-rule:nonzero}
    .fil71 {fill:url(#ne);fill-rule:nonzero}
    .fil58 {fill:url(#nf);fill-rule:nonzero}
    .fil60 {fill:url(#ng);fill-rule:nonzero}
    .fil90 {fill:url(#nh);fill-rule:nonzero}
    .fil267 {fill:url(#ni);fill-rule:nonzero}
    .fil217 {fill:url(#nj);fill-rule:nonzero}
    .fil244 {fill:url(#nk);fill-rule:nonzero}
    .fil222 {fill:url(#nm);fill-rule:nonzero}
    .fil218 {fill:url(#nn);fill-rule:nonzero}
    .fil17 {fill:url(#no);fill-rule:nonzero}
    .fil149 {fill:url(#np);fill-rule:nonzero}
    .fil45 {fill:url(#nq);fill-rule:nonzero}
    .fil81 {fill:url(#nr);fill-rule:nonzero}
    .fil171 {fill:url(#ns);fill-rule:nonzero}
    .fil8 {fill:url(#nt);fill-rule:nonzero}
    .fil103 {fill:url(#nu);fill-rule:nonzero}
    .fil135 {fill:url(#nv);fill-rule:nonzero}
    .fil209 {fill:url(#nx);fill-rule:nonzero}
    .fil13 {fill:url(#ny);fill-rule:nonzero}
    .fil182 {fill:url(#nz);fill-rule:nonzero}
    .fil12 {fill:url(#oa);fill-rule:nonzero}
    .fil213 {fill:url(#oc);fill-rule:nonzero}
    .fil122 {fill:url(#od);fill-rule:nonzero}
    .fil192 {fill:url(#oe);fill-rule:nonzero}
    .fil97 {fill:url(#of);fill-rule:nonzero}
    .fil25 {fill:url(#og);fill-rule:nonzero}
    .fil24 {fill:url(#oh);fill-rule:nonzero}
    .fil92 {fill:url(#oj);fill-rule:nonzero}
    .fil51 {fill:url(#ok);fill-rule:nonzero}
    .fil33 {fill:url(#ol);fill-rule:nonzero}
    .fil166 {fill:url(#om);fill-rule:nonzero}
    .fil238 {fill:url(#on);fill-rule:nonzero}
    .fil154 {fill:url(#oo);fill-rule:nonzero}
    .fil22 {fill:url(#op);fill-rule:nonzero}
    .fil108 {fill:url(#oq);fill-rule:nonzero}
    .fil109 {fill:url(#or);fill-rule:nonzero}
    .fil6 {fill:url(#os);fill-rule:nonzero}
    .fil241 {fill:url(#ov);fill-rule:nonzero}
    .fil101 {fill:url(#ow);fill-rule:nonzero}
    .fil100 {fill:url(#ox);fill-rule:nonzero}
    .fil138 {fill:url(#oy);fill-rule:nonzero}
    .fil169 {fill:url(#oz);fill-rule:nonzero}
    .fil23 {fill:url(#pa);fill-rule:nonzero}
    .fil123 {fill:url(#pb);fill-rule:nonzero}
    .fil254 {fill:url(#pd);fill-rule:nonzero}
    .fil85 {fill:url(#pe);fill-rule:nonzero}
    .fil157 {fill:url(#pf);fill-rule:nonzero}
    .fil186 {fill:url(#ph);fill-rule:nonzero}
    .fil46 {fill:url(#pi);fill-rule:nonzero}
    .fil273 {fill:url(#pj);fill-rule:nonzero}
    .fil150 {fill:url(#pk);fill-rule:nonzero}
    .fil220 {fill:url(#pl);fill-rule:nonzero}
    .fil160 {fill:url(#pm);fill-rule:nonzero}
    .fil117 {fill:url(#pn);fill-rule:nonzero}
    .fil37 {fill:url(#po);fill-rule:nonzero}
    .fil39 {fill:url(#pp);fill-rule:nonzero}
    .fil199 {fill:url(#pq);fill-rule:nonzero}
    .fil165 {fill:url(#ps);fill-rule:nonzero}
    .fil156 {fill:url(#pt);fill-rule:nonzero}
    .fil158 {fill:url(#pu);fill-rule:nonzero}
    .fil61 {fill:url(#pv);fill-rule:nonzero}
    .fil38 {fill:url(#pw);fill-rule:nonzero}
    .fil31 {fill:url(#px);fill-rule:nonzero}
    .fil204 {fill:url(#py);fill-rule:nonzero}
    .fil246 {fill:url(#pz);fill-rule:nonzero}
    .fil133 {fill:url(#qa);fill-rule:nonzero}
    .fil68 {fill:url(#qb);fill-rule:nonzero}
    .fil10 {fill:url(#qe);fill-rule:nonzero}
    .fil113 {fill:url(#qf);fill-rule:nonzero}
    .fil50 {fill:url(#qg);fill-rule:nonzero}
    .fil115 {fill:url(#qh);fill-rule:nonzero}
    .fil114 {fill:url(#qi);fill-rule:nonzero}
    .fil86 {fill:url(#qj);fill-rule:nonzero}
    .fil2 {fill:url(#qk);fill-rule:nonzero}
    .fil77 {fill:url(#ql);fill-rule:nonzero}
    .fil162 {fill:url(#qm);fill-rule:nonzero}
    .fil73 {fill:url(#qn);fill-rule:nonzero}
    .fil72 {fill:url(#qp);fill-rule:nonzero}
    .fil231 {fill:url(#qq);fill-rule:nonzero}
    .fil151 {fill:url(#qr);fill-rule:nonzero}
    .fil107 {fill:url(#qs);fill-rule:nonzero}
    .fil232 {fill:url(#qt);fill-rule:nonzero}
    .fil229 {fill:url(#qu);fill-rule:nonzero}
    .fil234 {fill:url(#qv);fill-rule:nonzero}
    .fil128 {fill:url(#qw);fill-rule:nonzero}
    .fil148 {fill:url(#qx);fill-rule:nonzero}
    .fil19 {fill:url(#qy);fill-rule:nonzero}
    .fil144 {fill:url(#ra);fill-rule:nonzero}
    .fil104 {fill:url(#rb);fill-rule:nonzero}
    .fil59 {fill:url(#rc);fill-rule:nonzero}
    .fil269 {fill:url(#rd);fill-rule:nonzero}
    .fil194 {fill:url(#rf);fill-rule:nonzero}
    .fil70 {fill:url(#rg);fill-rule:nonzero}
    .fil211 {fill:url(#rh);fill-rule:nonzero}
    .fil275 {fill:url(#ri);fill-rule:nonzero}
    .fil102 {fill:url(#rj);fill-rule:nonzero}
    .fil172 {fill:url(#rk);fill-rule:nonzero}
    .fil233 {fill:url(#rm);fill-rule:nonzero}
    .fil99 {fill:url(#rn);fill-rule:nonzero}
    .fil84 {fill:url(#ro);fill-rule:nonzero}
    .fil15 {fill:url(#rp);fill-rule:nonzero}
    .fil252 {fill:url(#rq);fill-rule:nonzero}
    .fil129 {fill:url(#rr);fill-rule:nonzero}
    .fil132 {fill:url(#rs);fill-rule:nonzero}
    .fil255 {fill:url(#rt);fill-rule:nonzero}
    .fil237 {fill:url(#ru);fill-rule:nonzero}
    .fil260 {fill:url(#rv);fill-rule:nonzero}
    .fil75 {fill:url(#rx);fill-rule:nonzero}
    .fil224 {fill:url(#ry);fill-rule:nonzero}
    .fil228 {fill:url(#rz);fill-rule:nonzero}
    .fil176 {fill:url(#sa);fill-rule:nonzero}
    .fil272 {fill:url(#sb);fill-rule:nonzero}
    .fil196 {fill:url(#sc);fill-rule:nonzero}
    .fil259 {fill:url(#sd);fill-rule:nonzero}
  </style>
	
	
	
	
	
	
<linearGradient
   inkscape:collect="always"
   xlink:href="#linearGradient2"
   id="linearGradient3"
   x1="398.3324"
   y1="714.29132"
   x2="426.39584"
   y2="686.22784"
   gradientUnits="userSpaceOnUse" /><linearGradient
   inkscape:collect="always"
   xlink:href="#linearGradient5"
   id="linearGradient7"
   x1="420.68307"
   y1="691.94067"
   x2="426.11301"
   y2="686.51074"
   gradientUnits="userSpaceOnUse" /></defs><g
     inkscape:label="Layer 1"
     inkscape:groupmode="layer"
     id="layer1"
     transform="translate(-392.52041,-680.41584)"><path
       d="m 407.23177,712.4646 c 3.89994,0 7.07272,-3.17278 7.07272,-7.07272 0,-3.89994 -3.17278,-7.07272 -7.07272,-7.07272 -3.89994,0 -7.07272,3.17278 -7.07272,7.07272 0,3.89994 3.17286,7.07272 7.07272,7.07272 z m 0,-12.93297 c 3.23139,0 5.86026,2.62887 5.86026,5.86025 0,3.23139 -2.62887,5.86026 -5.86026,5.86026 -3.23138,0 -5.86025,-2.62887 -5.86025,-5.86026 0,-3.23138 2.62895,-5.86025 5.86025,-5.86025 z"
       id="path1-13"
       style="fill:#ffffff;fill-opacity:1;stroke-width:0.0808311" /><path
       d="m 398.78492,705.39188 c 0,-4.65765 3.7892,-8.44685 8.44685,-8.44685 1.26695,0 2.48491,0.27345 3.62002,0.81276 0.30239,0.14364 0.66403,0.0149 0.80775,-0.28744 0.14363,-0.30239 0.015,-0.66402 -0.28744,-0.80774 -1.29895,-0.61715 -2.69192,-0.93004 -4.14033,-0.93004 -5.3262,0 -9.65932,4.33311 -9.65932,9.65931 0,2.19287 0.71641,4.26012 2.07171,5.97811 0.11963,0.15164 0.29713,0.23077 0.47633,0.23077 0.13143,0 0.26384,-0.0426 0.37506,-0.1303 0.26286,-0.20733 0.30789,-0.58853 0.10047,-0.85139 -1.18482,-1.50192 -1.8111,-3.30947 -1.8111,-5.22719 z"
       id="path2-26"
       style="fill:#ffffff;fill-opacity:1;stroke-width:0.0808311" /><path
       d="m 415.15346,700.96428 c -0.30239,0.14363 -0.43107,0.50527 -0.28743,0.80774 0.53922,1.13511 0.81259,2.353 0.81259,3.61986 0,4.65765 -3.7892,8.44685 -8.44685,8.44685 -1.91828,0 -3.72623,-0.6266 -5.22832,-1.81207 -0.26278,-0.20733 -0.64398,-0.16239 -0.85147,0.10031 -0.20741,0.26286 -0.16255,0.64406 0.10031,0.85148 1.71823,1.35602 3.78589,2.07275 5.97948,2.07275 5.3262,0 9.65932,-4.33311 9.65932,-9.65932 0,-1.44825 -0.3129,-2.84113 -0.92988,-4.14017 -0.14364,-0.3023 -0.5052,-0.43115 -0.80775,-0.28743 z"
       id="path3-8"
       style="fill:#ffffff;fill-opacity:1;stroke-width:0.0808311" /><path
       d="m 412.66297,698.92232 c 0.37458,0.31484 0.72409,0.66443 1.03893,1.03901 0.11987,0.14266 0.29155,0.21622 0.46445,0.21622 0.13766,0 0.27612,-0.0466 0.38969,-0.1421 0.25631,-0.21542 0.28954,-0.59783 0.0741,-0.85414 -0.35962,-0.428 -0.759,-0.82739 -1.187,-1.18709 -0.2564,-0.2155 -0.63873,-0.18219 -0.85415,0.074 -0.21549,0.25624 -0.18235,0.63865 0.074,0.85406 z"
       id="path4-5"
       style="fill:#d6740e;fill-opacity:1;stroke-width:0.0808311" /><path
       d="m 431.91921,690.50425 -1.46345,-0.90014 c 0.0175,-0.31726 0.0137,-0.63363 -0.0113,-0.94661 l 1.43871,-0.93901 c 0.21599,-0.14097 0.31921,-0.40327 0.25705,-0.6536 -0.23765,-0.95834 -0.62798,-1.86599 -1.16009,-2.69782 -0.13903,-0.21728 -0.40036,-0.32309 -0.65126,-0.26303 l -1.67118,0.39834 c -0.21,-0.23336 -0.43705,-0.45387 -0.6793,-0.65942 l 0.35339,-1.68145 c 0.053,-0.25252 -0.0595,-0.51085 -0.28048,-0.64398 -0.45993,-0.27709 -0.89052,-0.4942 -1.31618,-0.66387 -0.42606,-0.16982 -0.88793,-0.30837 -1.41204,-0.42363 -0.25211,-0.0555 -0.51141,0.0548 -0.64656,0.2745 l -0.90014,1.46353 c -0.31726,-0.0175 -0.63363,-0.0137 -0.94661,0.0112 l -0.93902,-1.43863 c -0.14105,-0.21598 -0.40334,-0.31928 -0.6536,-0.25704 -0.95833,0.23764 -1.86598,0.62797 -2.69782,1.16009 -0.21727,0.13902 -0.32283,0.40027 -0.26302,0.65125 l 0.39834,1.67127 c -0.23353,0.20999 -0.45387,0.43705 -0.65942,0.67922 l -1.68145,-0.35339 c -0.2526,-0.053 -0.51086,0.0595 -0.64398,0.28048 -0.27709,0.45993 -0.49421,0.89052 -0.66387,1.31617 -0.16983,0.42606 -0.30837,0.88793 -0.42364,1.41204 -0.0554,0.25195 0.0547,0.51142 0.27451,0.64657 l 1.46352,0.90013 c -0.0175,0.31727 -0.0137,0.63364 0.0113,0.94662 l -1.43871,0.93901 c -0.21606,0.14105 -0.3192,0.40327 -0.25704,0.6536 0.19165,0.77267 0.48417,1.51154 0.86844,2.20499 l -1.45544,0.87258 c -0.24419,-0.15059 -0.50689,-0.2994 -0.79215,-0.4487 l 0.0289,-1.74951 c 0.004,-0.24831 -0.14372,-0.47407 -0.37295,-0.56961 -1.20503,-0.50213 -2.48136,-0.84234 -3.79357,-1.01104 -0.24597,-0.0314 -0.48668,0.09 -0.6072,0.30692 l -0.8459,1.52285 c -0.29471,-0.0181 -0.61375,-0.0181 -0.90846,0 l -0.8459,-1.52285 c -0.12043,-0.21695 -0.36107,-0.33812 -0.6072,-0.30692 -1.31221,0.1687 -2.58853,0.50883 -3.79356,1.01104 -0.22924,0.0955 -0.37708,0.3213 -0.37296,0.56961 l 0.0289,1.74951 c -0.28525,0.1493 -0.54796,0.29811 -0.79215,0.4487 l -1.48931,-0.89303 c -0.21323,-0.12795 -0.48288,-0.11259 -0.68027,0.0386 -1.04313,0.79853 -1.97689,1.73229 -2.77542,2.77542 -0.15116,0.19739 -0.16643,0.46704 -0.0386,0.68027 l 0.89302,1.48931 c -0.15058,0.24428 -0.29939,0.5069 -0.44861,0.79215 l -1.74951,-0.0289 c -0.24419,-0.004 -0.47407,0.14364 -0.56961,0.37296 -0.50229,1.20503 -0.84242,2.48135 -1.01112,3.79356 -0.0316,0.24613 0.09,0.48669 0.30692,0.6072 l 1.52285,0.8459 c -0.009,0.14736 -0.0159,0.29851 -0.0159,0.45427 0,0.15576 0.007,0.30684 0.0159,0.45427 l -1.52285,0.8459 c -0.21695,0.12052 -0.33852,0.36107 -0.30692,0.6072 0.1687,1.31222 0.50883,2.58854 1.01104,3.79357 0.0955,0.22924 0.32195,0.37522 0.56961,0.37295 l 1.74951,-0.0289 c 0.1493,0.28525 0.29811,0.54795 0.44869,0.79214 l -0.89302,1.48931 c -0.12787,0.21324 -0.1126,0.48289 0.0386,0.68028 0.79853,1.04312 1.73229,1.97688 2.77542,2.77542 0.19739,0.15107 0.46712,0.16651 0.68027,0.0385 l 1.48931,-0.89302 c 0.24419,0.15059 0.5069,0.2994 0.79215,0.44869 l -0.0289,1.74951 c -0.004,0.24831 0.14372,0.47408 0.37296,0.56962 1.20503,0.5022 2.48135,0.84234 3.79356,1.01103 0.24589,0.0313 0.48668,-0.09 0.6072,-0.30691 l 0.8459,-1.52286 c 0.29471,0.0181 0.61375,0.0181 0.90846,0 l 0.8459,1.52286 c 0.10775,0.19407 0.31168,0.31184 0.52977,0.31184 0.0257,0 0.0516,-0.002 0.0774,-0.005 1.31221,-0.16869 2.58854,-0.50883 3.79357,-1.01103 0.22923,-0.0955 0.37707,-0.32131 0.37295,-0.56962 l -0.0289,-1.74951 c 0.28526,-0.14929 0.54796,-0.2981 0.79215,-0.44869 l 1.48931,0.89302 c 0.21315,0.12788 0.48281,0.11252 0.68028,-0.0385 1.04312,-0.79854 1.97688,-1.7323 2.77541,-2.77542 0.15116,-0.19739 0.16644,-0.46704 0.0386,-0.68028 l -0.89302,-1.48931 c 0.15059,-0.24419 0.2994,-0.50689 0.44869,-0.79214 l 1.74951,0.0289 c 0.24904,0.001 0.47407,-0.14371 0.56962,-0.37295 0.5022,-1.20503 0.84234,-2.48135 1.01103,-3.79357 0.0316,-0.24613 -0.09,-0.48668 -0.30691,-0.6072 l -1.52286,-0.8459 c 0.009,-0.14735 0.0159,-0.29843 0.0159,-0.45427 0,-0.15584 -0.007,-0.30691 -0.0159,-0.45427 l 1.52286,-0.8459 c 0.21695,-0.12051 0.33852,-0.36107 0.30691,-0.6072 -0.16869,-1.31221 -0.50883,-2.58853 -1.01103,-3.79356 -0.0956,-0.22924 -0.32268,-0.37498 -0.56962,-0.37296 l -1.74951,0.0289 c -0.14929,-0.28525 -0.29802,-0.54787 -0.44861,-0.79215 l 0.87201,-1.45423 c 0.35412,0.19925 0.69345,0.36334 1.02946,0.49719 0.42598,0.16983 0.88785,0.30837 1.41204,0.42364 0.0434,0.01 0.087,0.0141 0.13022,0.0141 0.20741,0 0.4044,-0.10677 0.51627,-0.28864 l 0.90021,-1.46353 c 0.31718,0.0175 0.63356,0.0137 0.94661,-0.0113 l 0.93902,1.4388 c 0.14097,0.21598 0.40327,0.31912 0.6536,0.25704 0.95825,-0.23773 1.8659,-0.62806 2.69774,-1.16009 0.21727,-0.13903 0.32292,-0.40036 0.2631,-0.65125 l -0.39833,-1.67127 c 0.23344,-0.21 0.45378,-0.43697 0.65942,-0.67922 l 1.68145,0.35339 c 0.25235,0.0527 0.51085,-0.0594 0.64398,-0.28048 0.27709,-0.45993 0.4942,-0.89052 0.66386,-1.31618 0.16983,-0.42598 0.30837,-0.88784 0.42364,-1.41203 0.0553,-0.25195 -0.0548,-0.51142 -0.27458,-0.64649 z m -13.66976,10.06129 1.71007,-0.0284 c 0.33019,0.86675 0.57091,1.77093 0.71802,2.69733 l -1.494,0.82997 c -0.20475,0.11373 -0.32559,0.33513 -0.31055,0.56889 0.004,0.0565 0.008,0.11301 0.0115,0.16951 0.0142,0.20426 0.0276,0.39728 0.0276,0.58901 0,0.19173 -0.0134,0.38468 -0.0276,0.58894 -0.004,0.0565 -0.008,0.113 -0.0115,0.16958 -0.015,0.23377 0.10588,0.45516 0.31055,0.56889 l 1.494,0.82997 c -0.14711,0.92641 -0.38783,1.83059 -0.71802,2.69734 l -1.71007,-0.0283 c -0.23473,-0.003 -0.44966,0.12747 -0.55345,0.33739 -0.25413,0.51376 -0.50066,0.94726 -0.75375,1.32514 -0.13054,0.19505 -0.13684,0.44789 -0.0162,0.64908 l 0.87128,1.45302 c -0.5891,0.7236 -1.25103,1.38552 -1.97455,1.97454 l -1.45302,-0.87128 c -0.20135,-0.12076 -0.45419,-0.11438 -0.64907,0.0162 -0.37789,0.25309 -0.81138,0.49962 -1.32514,0.75375 -0.20992,0.10379 -0.34127,0.31929 -0.33739,0.55346 l 0.0283,1.71006 c -0.86675,0.33019 -1.77093,0.57091 -2.69734,0.71802 l -0.82997,-1.494 c -0.10734,-0.19327 -0.31072,-0.31185 -0.52985,-0.31185 -0.0129,0 -0.026,4.1e-4 -0.039,10e-4 -0.0566,0.004 -0.113,0.008 -0.16958,0.0115 -0.20426,0.0141 -0.39721,0.0276 -0.58894,0.0276 -0.19173,0 -0.38467,-0.0134 -0.58893,-0.0276 -0.0565,-0.004 -0.11301,-0.008 -0.16959,-0.0115 -0.23457,-0.0158 -0.45516,0.1058 -0.56889,0.31055 l -0.82997,1.494 c -0.92641,-0.14711 -1.83058,-0.38783 -2.69733,-0.71802 l 0.0283,-1.71006 c 0.004,-0.23417 -0.12747,-0.44967 -0.33739,-0.55346 -0.51377,-0.25413 -0.94726,-0.50066 -1.32515,-0.75375 -0.19496,-0.13046 -0.4478,-0.13676 -0.64907,-0.0162 l -1.45302,0.87128 c -0.7236,-0.5891 -1.38553,-1.25103 -1.97454,-1.97454 l 0.87127,-1.45302 c 0.12069,-0.20127 0.11438,-0.45411 -0.0162,-0.64908 -0.25308,-0.37788 -0.49962,-0.81138 -0.75375,-1.32514 -0.10379,-0.20992 -0.31629,-0.33941 -0.55345,-0.33739 l -1.71006,0.0283 c -0.3302,-0.86675 -0.57091,-1.77093 -0.71803,-2.69734 l 1.494,-0.82997 c 0.20475,-0.11373 0.32559,-0.33512 0.31056,-0.56889 -0.004,-0.0566 -0.008,-0.113 -0.0115,-0.16958 -0.0141,-0.20426 -0.0276,-0.39721 -0.0276,-0.58894 0,-0.19181 0.0134,-0.38475 0.0276,-0.58901 0.004,-0.0565 0.008,-0.11292 0.0115,-0.16951 0.015,-0.23376 -0.10589,-0.45516 -0.31056,-0.56889 l -1.494,-0.82997 c 0.14712,-0.9264 0.38775,-1.83058 0.71803,-2.69733 l 1.71006,0.0284 c 0.234,0.003 0.44966,-0.12747 0.55345,-0.33739 0.25405,-0.5136 0.50059,-0.9471 0.75375,-1.32523 0.13054,-0.19496 0.13685,-0.4478 0.0162,-0.64907 l -0.87127,-1.45302 c 0.58909,-0.7236 1.25102,-1.38553 1.97454,-1.97454 l 1.45302,0.87128 c 0.20119,0.12076 0.45411,0.11437 0.64907,-0.0162 0.37789,-0.25308 0.81138,-0.49962 1.32515,-0.75375 0.20992,-0.10379 0.34127,-0.31928 0.33739,-0.55345 l -0.0283,-1.71006 c 0.86675,-0.3302 1.77092,-0.57091 2.69733,-0.71803 l 0.82997,1.49401 c 0.11365,0.20466 0.33472,0.32639 0.56889,0.31055 0.0566,-0.004 0.113,-0.008 0.16959,-0.0115 0.20426,-0.0141 0.3972,-0.0276 0.58893,-0.0276 0.19173,0 0.38468,0.0134 0.58894,0.0276 0.0565,0.004 0.113,0.008 0.16958,0.0115 0.23384,0.015 0.45516,-0.10589 0.56889,-0.31055 l 0.82997,-1.49401 c 0.92641,0.14712 1.83059,0.38783 2.69734,0.71803 l -0.0283,1.71006 c -0.004,0.23417 0.12747,0.44966 0.33739,0.55345 0.51376,0.25413 0.94725,0.50067 1.32514,0.75375 0.19496,0.13054 0.44789,0.13693 0.64907,0.0162 l 1.45302,-0.87128 c 0.7236,0.58909 1.38553,1.25102 1.97455,1.97454 l -0.87128,1.45302 c -0.12068,0.20127 -0.11438,0.45411 0.0162,0.64907 0.25317,0.37813 0.4997,0.81155 0.75375,1.32523 0.10387,0.20992 0.31718,0.34022 0.55345,0.33739 z m -1.26177,-6.34225 1.15063,-0.27426 c 0.21008,0.23344 0.43706,0.45386 0.67931,0.65942 l -0.256,1.21796 c -0.48401,-0.57285 -1.00941,-1.10957 -1.57394,-1.60312 z m 13.65609,-2.10937 c -0.0995,0.24961 -0.21945,0.5035 -0.36333,0.76838 l -1.61436,-0.33925 c -0.22924,-0.0482 -0.46575,0.04 -0.60745,0.22657 -0.29172,0.38395 -0.62563,0.7278 -0.99228,1.02179 -0.18292,0.14654 -0.26488,0.38556 -0.21049,0.61351 l 0.38177,1.60166 c -0.49428,0.2796 -1.01621,0.50407 -1.55915,0.6705 l -0.89989,-1.3789 c -0.12812,-0.19626 -0.35776,-0.30126 -0.59007,-0.26925 -0.46583,0.0639 -0.945,0.0698 -1.42441,0.0173 -0.23311,-0.0253 -0.4596,0.0855 -0.5823,0.28501 l -0.86425,1.40509 c -0.29115,-0.0778 -0.5579,-0.1653 -0.80775,-0.26489 -0.2496,-0.0995 -0.50349,-0.21945 -0.76838,-0.36333 l 0.33925,-1.61436 c 0.0482,-0.22924 -0.0401,-0.46575 -0.22657,-0.60745 -0.38394,-0.29164 -0.72772,-0.62555 -1.02186,-0.99236 -0.14663,-0.18292 -0.38549,-0.26496 -0.61351,-0.21048 l -1.60167,0.38176 c -0.27959,-0.49428 -0.50398,-1.01613 -0.67041,-1.55915 l 1.37889,-0.89989 c 0.19634,-0.12812 0.30118,-0.35792 0.26925,-0.59015 -0.0639,-0.46559 -0.0697,-0.94475 -0.0173,-1.42425 0.0255,-0.23287 -0.0855,-0.4596 -0.28502,-0.5823 l -1.40508,-0.86425 c 0.0778,-0.29115 0.1653,-0.55789 0.26488,-0.80774 0.0995,-0.24961 0.21946,-0.5035 0.36334,-0.76838 l 1.61427,0.33924 c 0.22916,0.0481 0.46575,-0.0401 0.60745,-0.22657 0.29156,-0.38394 0.62547,-0.72764 0.99228,-1.02178 0.18292,-0.14663 0.26489,-0.38557 0.21057,-0.61359 l -0.38177,-1.60167 c 0.49437,-0.27959 1.01613,-0.50398 1.55915,-0.67041 l 0.8999,1.37882 c 0.12803,0.19625 0.35751,0.30101 0.59014,0.26924 0.46543,-0.0639 0.94468,-0.0697 1.42425,-0.0173 0.23279,0.0254 0.4596,-0.0855 0.58231,-0.28501 l 0.86424,-1.40509 c 0.29116,0.0778 0.5579,0.1653 0.80775,0.26488 0.2496,0.0995 0.50349,0.21946 0.76838,0.36334 l -0.33925,1.61436 c -0.0482,0.22923 0.04,0.46575 0.22657,0.60744 0.38411,0.2918 0.72788,0.62572 1.02187,0.99237 0.14654,0.18292 0.3854,0.26472 0.6135,0.21048 l 1.60167,-0.38177 c 0.2796,0.49437 0.50398,1.01613 0.67042,1.55916 l -1.3789,0.89989 c -0.19634,0.12812 -0.30118,0.35792 -0.26925,0.59015 0.0639,0.46566 0.0698,0.94483 0.0174,1.42424 -0.0255,0.23287 0.0855,0.45961 0.28501,0.58231 l 1.405,0.86424 c -0.0777,0.29116 -0.16521,0.55798 -0.2648,0.80783 z"
       id="path5-4"
       style="fill:url(#linearGradient3);fill-opacity:1;stroke-width:0.0808311" /><path
       d="m 424.81965,685.65915 c -1.96678,-0.7839 -4.20427,0.17832 -4.98817,2.14494 -0.7839,1.96662 0.17831,4.20434 2.14493,4.98816 0.46486,0.18527 0.9446,0.27297 1.41697,0.27297 1.52601,0 2.97265,-0.91622 3.57128,-2.41798 0.78382,-1.96654 -0.17839,-4.20427 -2.14501,-4.98809 z m 1.01863,4.53923 c -0.53631,1.34552 -2.06733,2.00389 -3.41301,1.46757 -1.34551,-0.53639 -2.00397,-2.06741 -1.46757,-3.41301 0.40957,-1.02752 1.39935,-1.65437 2.44352,-1.65437 0.32317,0 0.6515,0.0601 0.96949,0.1868 1.3456,0.5364 2.00397,2.06742 1.46757,3.41301 z"
       id="path6-4"
       style="fill:url(#linearGradient7);fill-opacity:1;stroke-width:0.0808311" /></g><style
     type="text/css"
     id="style1-3">
	.st0{fill:#000000;}
</style></svg>
