<?xml version="1.0" encoding="UTF-8" standalone="no"?>
<!-- Uploaded to: SVG Repo, www.svgrepo.com, Generator: SVG Repo Mixer Tools -->

<svg
   width="800px"
   height="800px"
   viewBox="0 0 48 48"
   fill="none"
   version="1.1"
   id="svg2"
   sodipodi:docname="forum-svgrepo-com.svg"
   inkscape:version="1.4 (e7c3feb, 2024-10-09)"
   xmlns:inkscape="http://www.inkscape.org/namespaces/inkscape"
   xmlns:sodipodi="http://sodipodi.sourceforge.net/DTD/sodipodi-0.dtd"
   xmlns="http://www.w3.org/2000/svg"
   xmlns:svg="http://www.w3.org/2000/svg">
  <defs
     id="defs2" />
  <sodipodi:namedview
     id="namedview2"
     pagecolor="#ffffff"
     bordercolor="#000000"
     borderopacity="0.25"
     inkscape:showpageshadow="2"
     inkscape:pageopacity="0.0"
     inkscape:pagecheckerboard="0"
     inkscape:deskcolor="#d1d1d1"
     inkscape:zoom="0.5"
     inkscape:cx="470"
     inkscape:cy="450"
     inkscape:window-width="1920"
     inkscape:window-height="1003"
     inkscape:window-x="1920"
     inkscape:window-y="0"
     inkscape:window-maximized="1"
     inkscape:current-layer="svg2" />
  <g
     id="g2"
     style="fill:#ffffff"
     transform="matrix(0.636,0,0,0.636,8.736,9.70932)">
    <path
       fill-rule="evenodd"
       clip-rule="evenodd"
       d="m 9.24199,26.4192 c 0.13505,0.1359 0.1805,0.3372 0.117,0.518 l -0.31146,0.887 c -0.34032,0.9691 -0.71946,1.8444 -1.09884,2.6147 1.17609,-0.3152 2.32621,-0.7852 3.19441,-1.4632 l 0.6847,-0.5347 c 0.1412,-0.1103 0.3305,-0.1366 0.4964,-0.069 l 0.8045,0.3277 C 15.149,29.5228 17.4898,30 20,30 24.0274,30 27.5965,28.7732 30.1137,26.8853 32.6303,24.9978 34,22.5431 34,20 34,17.4569 32.6303,15.0022 30.1137,13.1147 27.5965,11.2268 24.0274,10 20,10 15.9726,10 12.4035,11.2268 9.88629,13.1147 7.36971,15.0022 6,17.4569 6,20 c 0,2.0684 0.89945,4.0606 2.5795,5.7522 z M 6.63696,32.7576 C 6.04508,32.8523 5.51332,32.91 5.085,32.9451 4.65926,32.9801 4.40822,32.4819 4.65098,32.1304 4.87529,31.8056 5.14301,31.394 5.43023,30.9028 5.99192,29.9423 6.62822,28.6774 7.16049,27.1616 5.17509,25.1626 4,22.6842 4,20 4,13.3726 11.1634,8 20,8 c 8.8366,0 16,5.3726 16,12 0,6.6274 -7.1634,12 -16,12 -2.7611,0 -5.3589,-0.5246 -7.6259,-1.4481 -1.6845,1.3156 -3.97672,1.9242 -5.73714,2.2057 z"
       fill="#333333"
       id="path1"
       style="fill:#ffffff" />
    <path
       fill-rule="evenodd"
       clip-rule="evenodd"
       d="m 22.2988,30.8717 c -0.7494,0.0846 -1.5171,0.1284 -2.2988,0.1284 -0.0601,0 -0.12,-3e-4 -0.1799,-8e-4 2.1272,3.089 6.4247,5.2008 11.3799,5.2008 2.2089,0 4.2871,-0.4196 6.1007,-1.1584 1.1831,0.9239 2.741,1.412 4.0567,1.6698 0.5854,0.1147 1.1229,0.1838 1.558,0.2254 0.4253,0.0407 0.679,-0.4571 0.4417,-0.8123 C 43.1384,35.7973 42.8807,35.383 42.6115,34.8901 42.2283,34.1881 41.8218,33.3266 41.4716,32.3293 43.0599,30.7302 44,28.7475 44,26.6001 c 0,-4.4309 -4.0025,-8.1607 -9.4438,-9.2666 0.2358,0.6943 0.3815,1.4146 0.4278,2.154 1.5715,0.4205 2.9558,1.091 4.067,1.9244 1.9375,1.4531 2.949,3.3079 2.949,5.1882 0,1.5315 -0.6644,3.0281 -1.9474,4.3198 l -0.6625,0.6671 c -0.135,0.1359 -0.1805,0.3371 -0.117,0.518 l 0.3115,0.887 c 0.1621,0.4618 0.3351,0.8975 0.5126,1.3053 -0.588,-0.2171 -1.1293,-0.4913 -1.5655,-0.8319 L 37.847,32.9307 c -0.1411,-0.1102 -0.3305,-0.1366 -0.4964,-0.069 l -0.8045,0.3278 c -1.5669,0.6383 -3.3882,1.0106 -5.3461,1.0106 -3.1437,0 -5.9129,-0.9582 -7.851,-2.4118 -0.3873,-0.2905 -0.7376,-0.597 -1.0502,-0.9166 z"
       fill="#333333"
       id="path2"
       style="fill:#ffffff" />
  </g>
</svg>
