<?xml version="1.0" encoding="UTF-8" standalone="no"?>
<!-- Uploaded to: SVG Repo, www.svgrepo.com, Generator: SVG Repo Mixer Tools -->

<svg
   width="800px"
   height="800px"
   viewBox="0 0 20 20"
   version="1.1"
   id="svg1"
   sodipodi:docname="github-142-svgrepo-com.svg"
   inkscape:version="1.4 (e7c3feb, 2024-10-09)"
   xmlns:inkscape="http://www.inkscape.org/namespaces/inkscape"
   xmlns:sodipodi="http://sodipodi.sourceforge.net/DTD/sodipodi-0.dtd"
   xmlns="http://www.w3.org/2000/svg"
   xmlns:svg="http://www.w3.org/2000/svg">
  <sodipodi:namedview
     id="namedview1"
     pagecolor="#ffffff"
     bordercolor="#000000"
     borderopacity="0.25"
     inkscape:showpageshadow="2"
     inkscape:pageopacity="0.0"
     inkscape:pagecheckerboard="0"
     inkscape:deskcolor="#d1d1d1"
     inkscape:zoom="1"
     inkscape:cx="406"
     inkscape:cy="558"
     inkscape:window-width="1920"
     inkscape:window-height="1003"
     inkscape:window-x="1920"
     inkscape:window-y="0"
     inkscape:window-maximized="1"
     inkscape:current-layer="svg1" />
  <title
     id="title1">github [#142]</title>
  <desc
     id="desc1">Created with Sketch.</desc>
  <defs
     id="defs1" />
  <path
     d="M 16.676562,10.172314 A 6.6766124,6.6766124 0 0 0 10,3.4984375 6.6766124,6.6766124 0 0 0 3.3234863,10.17373 c 9e-7,0.0012 4.74e-5,0.0024 4.89e-5,0.0037 a 6.6766124,6.6766124 0 0 0 4.9012695,6.426806 c 0.083881,-0.06755 0.1207519,-0.17191 0.1207519,-0.268799 0,-0.162909 -0.00604,-0.702376 -0.00938,-1.27456 C 6.478757,15.474789 6.0868652,14.252979 6.0868652,14.252979 5.78308,13.461802 5.345752,13.251465 5.345752,13.251465 c -0.6055675,-0.424632 0.04541,-0.415967 0.04541,-0.415967 0.6703305,0.04807 1.0234863,0.705713 1.0234863,0.705713 0.5955526,1.046223 1.5623539,0.743775 1.94292,0.568848 0.060089,-0.442658 0.2330239,-0.744411 0.4239746,-0.915332 -1.4828725,-0.172924 -3.0418946,-0.76049 -3.0418946,-3.3830571 0,-0.747779 0.2610606,-1.3580226 0.6876954,-1.8374023 -0.068769,-0.1729239 -0.2977445,-0.8692761 0.064795,-1.8120117 0,0 0.5608208,-0.183608 1.8367187,0.7017089 C 8.86165,6.712406 9.4324892,6.6336426 10,6.6336426 c 0.567512,0.00267 1.13905,0.078763 1.67251,0.2303222 1.274562,-0.8853169 1.834033,-0.7017089 1.834033,-0.7017089 0.363875,0.9427356 0.134866,1.6390878 0.06543,1.8120117 0.428637,0.4793797 0.687695,1.0896233 0.687695,1.8374023 0,2.6292441 -1.56234,3.2081001 -3.049219,3.3776851 0.23969,0.212316 0.453369,0.628954 0.453369,1.267237 0,0.916029 -0.008,1.653139 -0.008,1.878808 0,0.0969 0.03549,0.201408 0.118164,0.269092 a 6.6766124,6.6766124 0 0 0 4.90249,-6.427099 c 2e-6,-0.0017 9.7e-5,-0.0034 9.7e-5,-0.0051 z"
     style="fill:#ffffff;stroke-width:0.0730688;stroke-linecap:round;stroke-linejoin:round"
     id="path3" />
</svg>
