<?xml version="1.0" encoding="UTF-8" standalone="no"?>
<!-- Uploaded to: SVG Repo, www.svgrepo.com, Generator: SVG Repo Mixer Tools -->

<svg
   width="800px"
   height="800px"
   viewBox="-1.5 0 20 20"
   version="1.1"
   id="svg1"
   sodipodi:docname="macos.svg"
   inkscape:version="1.4 (e7c3feb, 2024-10-09)"
   xmlns:inkscape="http://www.inkscape.org/namespaces/inkscape"
   xmlns:sodipodi="http://sodipodi.sourceforge.net/DTD/sodipodi-0.dtd"
   xmlns="http://www.w3.org/2000/svg"
   xmlns:svg="http://www.w3.org/2000/svg">
  <sodipodi:namedview
     id="namedview1"
     pagecolor="#ffffff"
     bordercolor="#000000"
     borderopacity="0.25"
     inkscape:showpageshadow="2"
     inkscape:pageopacity="0.0"
     inkscape:pagecheckerboard="0"
     inkscape:deskcolor="#d1d1d1"
     inkscape:zoom="0.5"
     inkscape:cx="224"
     inkscape:cy="650"
     inkscape:window-width="1920"
     inkscape:window-height="1003"
     inkscape:window-x="1920"
     inkscape:window-y="0"
     inkscape:window-maximized="1"
     inkscape:current-layer="svg1" />
  <title
     id="title1">apple [#173]</title>
  <desc
     id="desc1">Created with Sketch.</desc>
  <defs
     id="defs1" />
  <g
     id="Page-1"
     stroke="none"
     stroke-width="1"
     fill="none"
     fill-rule="evenodd"
     transform="matrix(0.67,0,0,0.67,2.805,3.3000067)"
     style="fill:#ffffff">
    <g
       id="Dribbble-Light-Preview"
       transform="translate(-102,-7439)"
       fill="#000000"
       style="fill:#ffffff">
      <g
         id="icons"
         transform="translate(56,160)"
         style="fill:#ffffff">
        <path
           d="m 57.570887,7282.193 c 0.729073,-0.845 1.220514,-2.022 1.086025,-3.193 -1.050633,0.04 -2.321707,0.671 -3.075048,1.515 -0.67649,0.749 -1.267029,1.9459 -1.108271,3.0939 1.171977,0.087 2.368222,-0.57 3.097294,-1.4159 m 2.628099,7.4318 c 0.02933,3.027 2.770678,4.034 2.801014,4.047 -0.02225,0.071 -0.437848,1.435 -1.443988,2.8449 -0.87064,1.218 -1.773639,2.431 -3.196392,2.457 -1.397473,0.025 -1.847455,-0.794 -3.446157,-0.794 -1.59769,0 -2.09722,0.768 -3.419865,0.819 -1.373205,0.049 -2.419793,-1.318 -3.2965,-2.5319 -1.793862,-2.483 -3.164033,-7.017 -1.323656,-10.0769 0.914121,-1.519 2.547203,-2.482 4.320842,-2.506 1.347924,-0.025 2.62102,0.869 3.445145,0.869 0.824125,0 2.371256,-1.075 3.997259,-0.917 0.680535,0.027 2.591696,0.263 3.818277,1.984 -0.0991,0.059 -2.280247,1.275 -2.255979,3.8049"
           id="apple-[#173]"
           style="fill:#ffffff" />
      </g>
    </g>
  </g>
</svg>
