<?xml version="1.0" encoding="UTF-8" standalone="no"?>
<!-- Uploaded to: SVG Repo, www.svgrepo.com, Generator: SVG Repo Mixer Tools -->

<svg
   fill="#000000"
   width="800px"
   height="800px"
   viewBox="0 0 24 24"
   role="img"
   version="1.1"
   id="svg1"
   sodipodi:docname="openbsd.svg"
   inkscape:version="1.4 (e7c3feb, 2024-10-09)"
   xmlns:inkscape="http://www.inkscape.org/namespaces/inkscape"
   xmlns:sodipodi="http://sodipodi.sourceforge.net/DTD/sodipodi-0.dtd"
   xmlns="http://www.w3.org/2000/svg"
   xmlns:svg="http://www.w3.org/2000/svg"
   xmlns:rdf="http://www.w3.org/1999/02/22-rdf-syntax-ns#"
   xmlns:cc="http://creativecommons.org/ns#"
   xmlns:dc="http://purl.org/dc/elements/1.1/">
  <defs
     id="defs1" />
  <sodipodi:namedview
     id="namedview1"
     pagecolor="#ffffff"
     bordercolor="#000000"
     borderopacity="0.25"
     inkscape:showpageshadow="2"
     inkscape:pageopacity="0.0"
     inkscape:pagecheckerboard="0"
     inkscape:deskcolor="#d1d1d1"
     inkscape:zoom="1"
     inkscape:cx="400"
     inkscape:cy="400"
     inkscape:window-width="1920"
     inkscape:window-height="1003"
     inkscape:window-x="1920"
     inkscape:window-y="0"
     inkscape:window-maximized="1"
     inkscape:current-layer="svg1" />
  <title
     id="title1">OpenBSD icon</title>
  <path
     d="M 13.317234,3.9600035 C 13.160273,4.3252108 13.203787,4.7525811 13.089562,5.1325521 13.063143,5.2195802 12.976115,5.4837727 12.850235,5.4659009 12.591482,5.4286031 12.725909,4.9312995 12.42675,4.9219751 l 0.09324,0.7257524 c -0.44835,0.056724 -0.386964,-0.6441635 -0.569568,-0.928559 -0.209799,-0.3286866 -0.260307,0.149191 -0.24632,0.295274 0.0086,0.094799 0.02797,0.1880429 0.03885,0.2820643 0.0202,0.1631778 0.02487,0.3053755 0.0039,0.4685532 -0.42893,-0.00544 -0.271968,-0.569568 -0.585891,-0.655819 l 0.02331,0.6791301 C 10.708722,5.784486 10.492705,5.3555616 10.283682,4.9919084 10.196654,4.8396092 10.080876,4.5458893 9.8718529,4.6399107 c 0.097907,0.4227081 0.3286871,0.8267672 0.3527751,1.26657 0.0054,0.1126704 -0.101015,0.400951 -0.2587536,0.3481125 C 9.6014441,6.1318214 9.6503974,5.4713401 9.3473531,5.2980609 c -0.062163,-0.034967 -0.1585156,-0.00466 -0.2253407,-0.00155 0,0.3496666 0.1538533,0.7739287 0.2766251,1.1018382 0.026419,0.069933 0.1002377,0.3185851 -0.053616,0.3131459 -0.2742936,-0.00777 -0.3426728,-0.5400447 -0.621629,-0.4778818 0.03419,0.1437519 0.1188866,0.2603074 0.1670629,0.3986199 0.02875,0.084697 0.082366,0.1701712 0.097907,0.2579764 0.034189,0.191928 -0.2090233,0.2074687 -0.3356803,0.170948 C 8.3543,6.9725753 8.1398378,6.7285857 7.9261527,6.5149006 7.8670979,6.4558458 7.7109135,6.2475999 7.6122298,6.3423984 c -0.1095622,0.1049 0.105677,0.2898347 0.1670629,0.3605451 0.1818267,0.210577 0.379194,0.4576747 0.4662221,0.7265294 0.038075,0.1150015 0.045068,0.2797333 -0.069933,0.358991 C 8.0621342,7.8661676 7.8771994,7.7239699 7.785509,7.664138 7.5042217,7.4784262 7.2252655,7.1559559 6.8717137,7.1481856 L 6.7885708,7.3587626 7.0139115,7.663361 7.5982432,8.3199571 6.9183359,8.0386698 c 0.027196,0.1779414 0.4530125,0.3931806 0.3690925,0.5765614 -0.04973,0.1087852 -0.295274,0.1103391 -0.3924036,0.096353 -0.3465584,-0.04973 -0.592102,-0.3077066 -0.9145723,-0.400174 -0.2843955,-0.081589 -0.231557,0.1398666 -0.069933,0.2665236 0.055947,0.044291 0.1095622,0.090913 0.1639548,0.1375356 0.09713,0.08392 0.190374,0.170171 0.2812873,0.2610843 C 6.497959,9.118751 6.6222849,9.2702731 6.7543812,9.4217953 L 6.074474,9.3984842 v 0.046622 L 6.7310701,9.7497049 6.6137375,10.218258 c -0.189597,0 -0.3434503,-0.05206 -0.5159524,-0.126657 C 5.9804525,10.040317 5.8569037,9.9556196 5.7232533,9.9649441 5.5631837,9.9758227 5.4683852,10.121906 5.5756163,10.257887 c 0.1600696,0.204361 0.4817629,0.320139 0.6861235,0.479432 0.077704,0.06061 0.1919281,0.164732 0.1033459,0.268077 -0.1748333,0.205138 -0.6464946,-0.0575 -0.8764975,0.0101 v 0.04662 c 0.2136851,0.125103 0.6519339,0.19659 0.7770368,0.426593 0.099461,0.179496 -0.1802725,0.58744 -0.3784169,0.571899 C 5.7108207,12.045849 5.54842,11.846927 5.4186549,11.742027 5.1070631,11.491821 4.7737143,11.198102 4.4100611,11.024822 3.7876546,10.729548 3.1691333,11.200433 2.6757149,11.508139 c 0.06294,0.198922 0.3123688,-0.01321 0.4685532,0.02253 0.210577,0.0474 0.3706466,0.243213 0.505851,0.39862 0.6527109,0.752171 1.1989678,1.603804 1.4429574,2.578985 0.064494,0.256422 0.1740562,0.563352 -0.017872,0.793354 -0.051284,0.06216 -0.1282111,0.06993 -0.1849348,0.120441 -0.042737,0.03885 -0.040406,0.09169 0.017872,0.109562 0.1072311,0.03341 0.2641925,-0.01632 0.3690925,-0.04196 0.3442273,-0.08314 0.7374079,-0.268854 0.8935923,-0.606088 0.09713,-0.210577 0.1313192,-0.619299 0.3729777,-0.703219 0.052839,0.225341 0.3061525,0.522946 0.2820644,0.749841 -0.022534,0.201252 -0.2346652,0.43514 -0.358214,0.583555 -0.044291,0.05284 -0.1499681,0.168617 -0.087028,0.244766 0.063717,0.07537 0.1942592,-0.08703 0.233111,-0.124326 0.1779414,-0.16784 0.5672369,-0.433586 0.6721369,-0.04818 0.09169,0.33568 -0.2028066,0.878052 -0.3496666,1.172548 -0.04196,0.08159 -0.2307799,0.338012 -0.1569614,0.429702 0.085474,0.1049 0.2626384,-0.169394 0.3007132,-0.219125 0.147637,-0.193482 0.6651435,-0.766935 0.9402146,-0.56102 0.3349028,0.25176 0.2191243,0.431255 0.092467,0.772374 -0.035744,0.09558 -0.1678399,0.336457 -0.077704,0.427371 0.086251,0.08858 0.2004755,0.0078 0.2447666,-0.07615 0.080812,-0.153076 0.2976051,-0.606089 0.5136213,-0.49031 0.1359814,0.07226 0.3426732,0.195036 0.421931,0.330241 0.1227718,0.211354 0.015541,0.633285 -0.017095,0.863287 -0.018649,0.132097 -0.1608466,0.54548 -0.042737,0.641056 0.1087851,0.0878 0.1973673,-0.177165 0.2300029,-0.242436 0.1157784,-0.229226 0.2486517,-0.463891 0.4195998,-0.656596 0.062163,-0.06916 0.1491911,-0.184157 0.2540911,-0.164732 0.543926,0.101792 -0.01166,0.644164 0.212131,0.920789 0.04507,0.05595 0.167063,0.05206 0.233111,0.06449 l 0.281287,-0.726529 c 0.142975,0.05439 0.353552,0.07382 0.459229,0.192705 0.08858,0.09946 0.106454,0.2673 0.132096,0.39318 0.07149,0.352775 0.11034,0.696225 0.06527,1.054439 0.04429,0.03264 0.115002,0.107232 0.174834,0.06838 0.07537,-0.04818 0.08547,-0.244767 0.111116,-0.326356 0.08237,-0.257976 0.209023,-0.505074 0.326355,-0.74984 0.07693,-0.160847 0.287504,-0.331795 0.439026,-0.11034 0.155408,0.226895 0.09324,0.624738 0.191151,0.884268 0.248652,-0.122771 0.275848,-0.641055 0.281288,-0.891261 l 0.32247,0.0474 0.194259,0.39862 0.349667,1.007817 c 0.181826,-0.06993 0.124326,-0.418046 0.145306,-0.585886 0.0272,-0.227672 0.08003,-0.685346 0.247097,-0.85474 0.06682,-0.0676 0.200476,-0.07382 0.287504,-0.106454 0.100238,0.242435 0.15463,0.517506 0.275071,0.74984 0.04662,0.09014 0.153853,0.188043 0.261861,0.132096 0.103346,-0.05284 0.09946,-0.174056 0.08625,-0.271962 -0.03264,-0.243213 -0.0878,-0.481763 -0.107231,-0.727307 0.464668,-0.03263 0.738185,0.342673 1.029574,0.656596 0.11267,0.120441 0.210577,0.281288 0.376863,0.32791 l -0.240879,-0.703212 -0.133651,-0.656596 c 0.168617,-0.06993 0.525277,-0.414937 0.703219,-0.365207 0.264192,0.07537 0.466222,0.812781 0.794908,0.639501 0.139867,-0.07382 0.06838,-0.199698 0.0023,-0.297605 -0.09791,-0.146083 -0.39318,-0.496526 -0.361322,-0.67913 0.02331,-0.135981 0.25176,-0.294497 0.383856,-0.292943 0.303822,0.0047 0.832207,0.236219 1.007817,0.480209 l 0.211354,-0.02331 c -0.03108,-0.4196 -0.660481,-0.611528 -0.750617,-1.031905 a 0.31392288,0.31392288 0 0 1 0.0031,-0.13365 c 0.06682,-0.269632 0.228449,-0.151523 0.396289,-0.07926 0.05206,0.02253 0.165508,0.08004 0.209022,0.01554 0.04662,-0.07071 -0.0373,-0.164732 -0.0676,-0.224564 -0.06372,-0.121218 -0.121217,-0.261861 -0.0948,-0.39862 0.219124,0.0575 0.353552,0.188043 0.539263,0.310815 0.04351,0.02953 0.139867,0.101792 0.195037,0.06216 0.05828,-0.04351 -0.02797,-0.129765 -0.05517,-0.161624 -0.08237,-0.09558 -0.33568,-0.326355 -0.310815,-0.466222 0.01709,-0.0948 0.176388,-0.195813 0.240882,-0.260307 0.214462,-0.214463 0.458451,-0.432033 0.633285,-0.679908 h 0.02331 c 0.413383,0.48254 1.711812,0.144529 1.546303,-0.585885 -0.102569,0.01476 -0.198921,0.09557 -0.304598,0.05983 -0.461559,-0.159291 -0.349666,-0.89903 -0.867172,-0.903692 -0.03804,-0.481757 -0.231517,-0.96352 -0.465406,-1.38312 -0.107231,-0.191928 -0.329463,-0.367539 -0.407944,-0.563352 -0.04274,-0.108785 -0.03574,-0.279733 -0.04041,-0.397843 0.271186,-0.04196 0.137536,-0.316254 0.03885,-0.468553 C 19.152781,10.002242 19.036225,9.8009893 18.894028,9.6587917 18.718417,9.4824042 18.457333,9.3681798 18.479867,9.0697976 c 0.02098,-0.2774021 0.498858,-0.2416584 0.580446,-0.4918643 -0.142197,0.00622 -0.282064,0.041183 -0.421931,0.064494 -0.348889,0.058278 -0.409498,-0.059055 -0.24632,-0.3690924 0.142198,-0.271186 0.368315,-0.4763237 0.567237,-0.7032184 0.06449,-0.072264 0.261084,-0.2377733 0.159292,-0.3426733 -0.08314,-0.087028 -0.222232,0.045068 -0.292943,0.092467 -0.258753,0.1709481 -0.547811,0.2983822 -0.843862,0.3900725 -0.0878,0.027196 -0.348112,0.1289881 -0.37764,-0.027196 -0.03963,-0.211354 0.359768,-0.2502058 0.30693,-0.4879791 -0.159293,0.038075 -0.473992,0.2906118 -0.627069,0.1732792 -0.184935,-0.1398666 0.08625,-0.4996347 0.115779,-0.6651435 0.02953,-0.16784 -0.105677,-0.1740563 -0.200476,-0.069933 -0.03341,0.037298 -0.06294,0.077704 -0.09324,0.1165555 -0.05439,0.067602 -0.09791,0.1320963 -0.132096,0.210577 -0.383857,-0.2237866 0.341896,-0.484094 0.205914,-0.6915628 -0.04895,-0.073819 -0.139089,0 -0.182603,0.038852 -0.09091,0.079258 -0.433587,0.4739925 -0.508182,0.1841578 -0.08237,-0.3201392 0.08392,-0.7055495 0.170948,-1.0078168 0.02176,-0.079258 0.123549,-0.2921658 0.02487,-0.3488895 -0.143752,-0.082366 -0.206692,0.1965903 -0.240882,0.2789562 a 1.8128269,1.8128269 0 0 1 -0.477877,0.6519339 c -0.06682,0.059832 -0.180273,0.1748333 -0.279733,0.147637 -0.145306,-0.039629 -0.146083,-0.442911 -0.141421,-0.5656828 0.0023,-0.058278 0.03497,-0.1592926 -0.02176,-0.2020296 -0.0746,-0.05517 -0.114225,0.055947 -0.124326,0.1087852 -0.0373,0.1725021 -0.144529,0.6651435 -0.400174,0.3418962 -0.231563,-0.2921662 0.126651,-0.8990319 -0.34501,-1.0218038 L 14.395761,5.6951267 C 14.086501,5.6275245 14.15488,5.1853906 14.231807,4.9445092 l -0.140644,-0.046622 a 2.5665526,2.5665526 0 0 1 -0.08703,0.2812874 c -0.124324,0.3504433 -0.291387,0.4188225 -0.420375,0.023311 -0.09868,-0.3014903 -0.06372,-0.6270687 -0.11267,-0.9378835 -0.01943,-0.1235488 -0.03108,-0.2486517 -0.153854,-0.3045984 z m 0.02331,0.7032183 c 0.118887,0.2828414 -0.0062,0.6371702 0.184158,0.9137953 0.194259,0.2828414 0.556358,0.1305422 0.792578,0.3084836 0.08392,0.06294 0.01709,0.1989215 -0.0054,0.2781792 -0.0777,0.2696318 -0.216016,0.4693303 -0.361322,0.7032184 0.508959,-0.2603074 0.679908,-1.0023775 0.749841,-1.5229922 h 0.02331 c -0.0202,0.4631139 -0.0054,0.9184575 0,1.3823485 0.0023,0.2097999 -0.02875,0.4522354 0.211354,0.4918643 v -1.076973 c 0.250983,0.072264 0.627846,0.3900724 0.900586,0.296051 0.139089,-0.047399 0.265746,-0.2152392 0.362876,-0.3193621 0.07304,-0.079258 0.135981,-0.1647319 0.189597,-0.2579763 h 0.02331 l -0.09324,0.7498406 -0.234665,-0.046622 0.515176,0.3675384 0.202806,0.1756103 -0.155407,0.2284488 -0.679907,0.4941954 c 0.49493,-0.073042 0.744359,-0.4382489 1.101796,-0.7265296 -0.116556,0.4895332 -0.381525,0.9806205 -0.257976,1.4996811 h 0.02331 l 0.281287,-1.1251493 c 0.212908,0.1010147 0.287504,0.3698695 0.491865,0.4918643 0.297605,0.1771644 0.714096,-0.1585155 0.984505,-0.2571992 -0.176386,0.2502058 -0.44291,0.4258162 -0.491863,0.7498405 l -0.211354,-0.093244 c 0.183381,0.4708843 0.403282,0.9246738 0.481763,1.4297477 0.07226,0.4615595 -0.01865,0.9192345 0.01243,1.3831255 0.01554,0.213685 0.103346,0.401728 0.13909,0.609197 -0.437472,0.148414 -0.517507,0.761496 -0.937884,0.960418 0.03341,-0.146083 0.08547,-0.292943 0.08547,-0.445243 0,-0.108785 -0.05128,-0.219124 -0.02331,-0.327909 0.05672,-0.215239 0.24399,-0.394735 0.32014,-0.609197 0.118109,-0.334126 0.03885,-0.648826 -0.007,-0.984506 l 0.233888,0.02331 L 17.603358,9.4925056 17.311193,9.0472635 17.419201,8.742665 c -0.592102,0.4553436 -1.450728,0.9231199 -1.453059,1.781746 l 0.210577,-0.07071 0.06993,0.515952 -0.327909,0.04662 v 0.04662 c 0.274294,0.0777 0.56102,0.115779 0.82055,0.237773 0.189597,0.08858 0.399397,0.205915 0.52994,0.372201 0.43514,0.551696 0.08703,1.412653 -0.240882,1.921613 -0.165509,0.256422 -0.46156,0.492641 -0.570345,0.773928 0.296828,-0.07149 0.44835,-0.355106 0.615413,-0.585886 0.07071,-0.09868 0.132097,-0.235442 0.252537,-0.281287 0.186489,-0.06993 0.248652,0.275071 0.288281,0.397843 0.05051,0.155407 0.169394,0.424262 0.139867,0.586663 -0.05517,0.311592 -0.322471,0.514398 -0.264193,0.867173 0.128988,-0.156962 0.168617,-0.46933 0.374532,-0.54548 0.132096,-0.04818 0.269632,0.07382 0.39862,0.09324 0.279733,0.04118 0.567237,-0.06372 0.773928,-0.253314 0.221456,-0.20436 0.372978,-0.533047 0.317031,-0.84153 -0.03341,-0.186489 -0.137535,-0.36987 -0.124326,-0.562575 0.0093,-0.155407 0.115002,-0.281287 0.170949,-0.421931 0.134427,-0.331795 0.118109,-0.708658 -0.199699,-0.923897 A 0.66825167,0.66825167 0 0 0 18.919656,11.7902 c 0.02564,-0.172503 0.205137,-0.548588 0.411829,-0.324802 0.146083,0.156962 0.225341,0.433587 0.307707,0.6294 0.302267,0.71332 0.304598,1.558736 -0.126657,2.226211 -0.306153,0.473992 -0.792578,0.862511 -1.202853,1.243259 l -0.163178,-0.46933 h -0.0474 c -0.05439,0.279733 0.143752,0.599872 0.257976,0.843862 -0.256422,-0.05828 -0.501189,-0.322471 -0.773929,-0.281288 0.07693,0.132097 0.581224,0.444465 0.188043,0.585886 0.0023,0.115002 -0.08547,0.194259 -0.155407,0.281287 -0.156184,0.192706 -0.352775,0.480209 -0.59521,0.562575 l -0.445242,-1.171771 h -0.02331 c 0.06527,0.513621 0.243989,1.014033 0.473992,1.47637 0.119664,0.23855 0.313146,0.474769 0.393181,0.726529 -0.145306,-0.123549 -0.237774,-0.320916 -0.362099,-0.468553 a 4.9054335,4.9054335 0 0 0 -0.73974,-0.693117 c -0.176387,-0.137536 -0.349666,-0.292166 -0.585885,-0.268078 0.268077,0.240882 0.674468,0.369093 0.648825,0.820551 -0.0078,0.128211 -0.149968,0.184158 -0.250205,0.230003 -0.263416,0.120441 -0.520615,0.250206 -0.79724,0.340342 -0.07615,0.02487 -0.216793,0.09324 -0.296828,0.0676 -0.08547,-0.02875 -0.07537,-0.215239 -0.0847,-0.286726 -0.02875,-0.221456 0.09402,-0.798794 -0.133651,-0.890484 -0.09946,0.784807 0.102569,1.498904 0.163178,2.273609 h -0.02331 C 14.825447,18.670859 14.616424,18.032912 14.306386,17.5325 14.220916,17.394965 14.039863,17.068609 13.856482,17.110569 l 0.481763,0.843862 0.0101,0.357437 -0.35122,0.06216 -1.007817,0.02564 c 0.03652,-0.289834 0.101015,-0.579669 0.155407,-0.867173 0.01088,-0.06294 0.0575,-0.253314 -0.06061,-0.253314 -0.108785,0 -0.131319,0.317031 -0.14686,0.393958 -0.08392,0.421154 -0.158515,0.859403 -0.159292,1.289881 h -0.02331 c 0,-0.709435 -0.318586,-1.344274 -0.609197,-1.969788 -0.08081,0.12044 0.03186,0.292943 0.06682,0.421931 0.07693,0.28828 0.08781,0.572676 0.05051,0.867173 -0.475529,-0.09168 -0.990705,-0.216006 -1.42973,-0.42192 0.115778,-0.277402 0.447573,-0.690786 0.445242,-0.984506 -0.430479,0.432033 -0.624738,1.037344 -0.843862,1.59448 h -0.02331 l 0.09324,-1.12515 -0.163178,-0.961194 c -0.102569,0.103346 -0.04662,0.310037 -0.03108,0.445242 0.02564,0.213685 0.01166,0.534601 -0.146083,0.699333 -0.08703,0.09091 -0.1756104,0.01088 -0.2688548,-0.02642 C 9.6348569,17.396524 9.4429288,17.222467 9.215257,17.063952 9.134445,17.008002 8.9875852,16.947396 8.9976867,16.829287 c 0.024865,-0.336457 0.5097361,-0.49575 0.5221687,-0.79724 -0.5594665,0.240881 -0.8252131,0.845416 -1.265793,1.219948 0.1445289,-0.609974 0.6076428,-1.323294 0.4926414,-1.969788 -0.1181096,0.06527 -0.1126703,0.229225 -0.1437518,0.351997 A 3.3599072,3.3599072 0 0 1 8.3014615,16.384046 C 7.9906468,16.20455 7.741995,15.899952 7.5376343,15.610117 7.4809106,15.530859 7.3565847,15.408088 7.3550306,15.305519 7.3534766,15.206058 7.467701,15.092611 7.5298639,15.024231 7.7194609,14.818317 7.9494638,14.662909 8.20744,14.555678 8.0232823,14.441454 7.658852,14.711085 7.4575995,14.767032 7.5935809,14.479528 7.9626734,14.198241 7.8562194,13.85246 7.5508439,14.09101 7.3433751,14.606186 7.12969,14.930987 H 7.106379 l -0.4460192,-0.984506 0.5858858,0.210577 c 0.017872,-0.2098 -0.2797333,-0.289835 -0.4452421,-0.327909 0.097907,-0.254868 0.3698695,-0.449128 0.3045984,-0.749841 h -0.046622 c -0.067602,0.21757 -0.2090229,0.589771 -0.4452421,0.655819 l -0.069933,-0.374532 h -0.023311 c -0.092467,0.196591 0.022534,0.347336 -0.031081,0.533825 -0.02875,0.09713 -0.168617,0.08237 -0.2175703,0.172502 -0.066048,0.122772 -0.071487,0.287504 -0.127434,0.418823 -0.1336504,0.316254 -0.3885184,0.548588 -0.7024413,0.67913 l -0.02875,-0.4196 0.3566599,-0.400174 -0.3753088,0.28051 C 5.3463923,14.500508 5.2368299,14.264289 5.3013243,14.133747 5.3580483,14.021077 5.4986917,13.947258 5.5826117,13.85246 L 5.207301,14.039726 c -0.126657,-0.32791 0.1048999,-0.233111 0.2346651,-0.468554 -0.094799,0.05439 -0.252537,0.155408 -0.3659844,0.103346 -0.1453058,-0.06605 -0.2983821,-0.497303 -0.360545,-0.642609 l 0.3978428,-0.06993 v -0.02331 c -0.1880429,0.02331 -0.486425,0.09324 -0.5151754,-0.163954 h 0.4918643 v -0.02331 L 4.5367181,12.689236 4.3859729,12.493422 4.0588404,12.071491 c 0.1950363,-0.05828 0.5307162,-0.05828 0.7265295,0 C 4.4994203,11.770778 3.9896842,12.212912 3.754242,11.719493 l 0.5858858,-0.116555 v -0.02331 c -0.1818266,0 -0.5206147,0.1049 -0.6791302,0.02176 -0.04196,-0.02176 -0.073041,-0.05828 -0.1041229,-0.09324 -0.3014903,-0.340342 0.3729776,-0.371424 0.5952102,-0.341896 0.4273702,0.05906 0.7576109,0.35122 1.055216,0.647271 0.1507451,0.149968 0.3675384,0.418046 0.5858857,0.462337 0.2160163,0.04274 0.3962888,-0.0948 0.5625747,-0.204361 0,0.164732 -0.017095,0.32791 0.1165555,0.445242 0,-0.323247 0.00389,-0.66592 0.054393,-0.984505 0.017871,-0.118109 0.064494,-0.273517 0.2043603,-0.295274 0.1748333,-0.02642 0.4126065,0.240105 0.5384865,0.341897 C 7.2711107,11.397023 7.1335751,11.24317 7.0216818,11.110296 6.7139753,10.745089 6.2252191,10.400085 5.7939637,10.195724 v -0.02331 c 0.6395013,0.110339 1.1204871,0.485648 1.8042795,0.304598 v -0.04662 L 6.8010034,10.313834 C 6.834416,10.064405 7.0154656,9.7434886 6.9587419,9.4925057 6.8810382,9.1506095 6.5173849,8.992094 6.3790724,8.6960429 c 0.2377733,0.09169 0.4895332,0.2253407 0.7506176,0.23078 0.1460829,0.00389 0.2610843,-0.07615 0.3978428,-0.1087852 0.3768629,-0.087805 0.5952102,0.095575 0.843862,0.3465585 C 8.439774,8.9275999 8.2548393,8.7302327 8.1118645,8.5553993 7.9673357,8.3774578 7.8399016,8.1979623 7.6689535,8.043332 7.4614847,7.8568432 7.1545551,7.6392729 7.0356685,7.3828507 c 0.1942592,0.038075 0.3807481,0.1989214 0.5392636,0.3123688 0.2789562,0.1981444 0.5555813,0.3908495 0.8671731,0.5369324 0.1639547,0.077704 0.4491272,0.2059148 0.5858857,0.04196 L 8.2781504,7.9928246 C 8.332543,7.9143439 8.4102466,7.8467417 8.4498755,7.7581595 8.5571066,7.5196092 8.3690637,7.3168026 8.3014615,7.1023404 8.4452133,7.1551794 8.5695392,7.2787278 8.7233925,7.30437 9.0839376,7.364979 9.2937375,6.9391627 9.5672545,6.7969649 L 9.7545204,7.6874491 C 9.9107048,7.556907 9.8415485,7.3035929 9.8151292,7.1248745 9.7382026,6.608922 9.4320501,6.1528014 9.3566775,5.6485045 h 0.023311 C 9.6760395,6.2825666 10.028814,6.966359 10.621693,7.3587626 L 10.406454,7.0766982 10.035808,6.5149006 c 0.07382,-0.02875 0.146083,-0.059832 0.209023,-0.1103393 0.410275,-0.3286865 0.06061,-0.7863612 0.0015,-1.1787648 h 0.02331 c 0.05051,0.1204407 0.108789,0.2439895 0.182607,0.3519977 0.342674,0.4957495 0.794909,0.4164917 1.317855,0.3745317 l -0.139867,1.0319049 h 0.02331 c 0.06916,-0.2199014 0.200476,-0.400951 0.247098,-0.6332849 0.08547,-0.422708 -0.0047,-0.8423079 -0.01321,-1.2657931 h 0.02331 c 0.0373,0.2502059 0.13909,0.4895333 0.219125,0.7273065 0.12588,0.3745317 0.227672,0.7848073 0.507405,1.0777502 L 12.380075,5.8357704 c 0.744401,-7.769e-4 0.947208,-0.5027428 0.960416,-1.1725486 z m -0.210576,1.6177907 -0.375308,1.687724 c 0.289057,-0.1763874 0.349666,-0.8182198 0.375308,-1.1251494 h 0.02331 c 0.05051,0.2704089 0.0746,0.5408177 0.184934,0.7964628 0.04351,0.1010148 0.09091,0.2369962 0.213685,0.2346651 L 13.251963,6.8202761 Z m -2.29692,0.3045984 c 0.0047,0.5990954 0.300713,1.1445753 0.186488,1.7576574 0.113448,-0.068379 0.116556,-0.2292258 0.11811,-0.3512207 0.0031,-0.2836185 -0.04662,-0.5617976 -0.04662,-0.843862 h 0.02331 c 0.08159,0.2828414 0.303044,0.8469702 0.632508,0.8904843 -0.03885,-0.1522993 -0.163956,-0.2673008 -0.247876,-0.39862 -0.184935,-0.2906118 -0.366761,-0.8780516 -0.66592,-1.054439 z m 4.805195,0.2579762 C 15.377159,7.2523085 15.066344,7.810998 14.677049,8.1093802 v 0.023311 c 0.295274,-0.052839 0.614636,-0.4265933 0.703218,-0.7032184 h 0.02331 c -0.0039,0.4164917 -0.195036,0.8586257 -0.02331,1.2657931 h 0.02331 c 0.124326,-0.421931 0.05983,-0.9200117 0.167063,-1.3598145 0.03341,-0.1375356 0.157739,-0.3675385 0.0676,-0.4918644 z m -1.547857,0.9371065 c -0.138313,0.3123688 -0.205915,0.6022035 -0.492641,0.8205508 v 0.046622 c 0.205914,0.054393 0.349666,-0.2035836 0.398619,-0.3745317 h 0.02331 c 0.0202,0.1577385 0.03885,0.484871 0.211354,0.5392636 L 14.115251,8.2733349 Z M 9.0738361,7.8040047 C 9.1243435,8.381343 9.8998262,8.7706385 9.8003655,9.3984842 9.9246914,9.3254428 9.8928329,9.1894613 9.8508729,9.0697976 9.7638448,8.823477 9.6193159,8.6066837 9.5190782,8.3665793 9.7436418,8.571717 10.075437,8.803274 10.387028,8.6719548 L 9.895164,8.4675941 Z M 12.30864,7.9920476 c -0.07071,0.233111 -0.269631,0.6884546 -0.187265,0.9137953 h 0.04662 L 12.33195,8.3432683 h 0.02331 c 0.05828,0.212131 0.118886,0.5338242 0.375308,0.5625746 L 12.355263,7.9920476 Z m -1.570391,0.5858857 0.116556,0.9845057 h 0.0474 l -0.02331,-0.7032183 c 0.153076,0.106454 0.359768,0.3683154 0.562574,0.2812873 C 11.363764,9.0550339 11.249539,9.0402702 11.16018,8.9680058 11.014874,8.8506733 10.937947,8.5934741 10.738249,8.5779333 Z M 15.894665,8.7178 c -0.247097,0.2486517 -0.453789,0.4188228 -0.796462,0.5159524 v 0.047399 c 0.202806,0.058278 0.399397,-0.054393 0.562574,-0.1639548 -0.0272,0.1375355 -0.202029,0.4973036 -0.06993,0.5858858 l 0.224564,-0.6799073 z m 1.19586,0.4848709 c 0.107231,0.00777 0.188043,0.1445289 0.250983,0.2191244 0.185712,0.2167933 0.394735,0.4467962 0.475547,0.7265297 -0.541595,-0.111893 -1.128258,-0.03497 -1.664413,0.09324 0.119663,-0.3146997 0.346558,-0.6480485 0.609974,-0.8547403 0.08936,-0.071487 0.200475,-0.1942592 0.327909,-0.1841578 z M 11.886709,9.2570635 11.746066,9.98437 c 0.117332,-0.089359 0.145306,-0.3737547 0.163955,-0.5159525 l 0.211354,0.2346652 A 0.82210496,0.82210496 0 0 0 11.886709,9.2578406 Z m 2.296921,0.07071 -0.445242,0.4452421 0.421931,-0.3045985 0.06993,0.421931 c 0.08236,-0.1196636 0.03885,-0.4491273 -0.04662,-0.5625746 z m -4.921751,0.060609 a 0.19581328,0.19581328 0 0 0 -0.046622,0.010102 v 0.023311 C 9.4118471,9.6207168 9.5750248,9.8957879 9.6977967,10.148325 9.7661759,10.287414 9.74675,10.440491 9.894387,10.523634 9.8827314,10.24934 9.7653989,10.041871 9.6597219,9.7971041 9.8260077,9.8934567 10.04824,10.037986 10.245608,9.9835929 V 9.9369707 C 9.979861,9.8188611 9.7739463,9.7186234 9.5423893,9.5344657 9.4569152,9.4660864 9.3683331,9.3790583 9.261879,9.3883825 Z M 7.6440883,9.6090612 c 0.022534,0.1981444 0.1841578,0.2719629 0.3279096,0.380748 a 2.7196289,2.7196289 0 0 1 0.5338243,0.5105128 c 0.098684,0.128989 0.1592925,0.351221 0.2875036,0.445243 -0.027973,-0.345005 -0.231557,-0.750618 -0.5633517,-0.891262 v -0.02331 c 0.337234,0.06527 0.6736909,0.191151 1.0078168,0.04662 v -0.04662 L 8.839171,10.015452 Z m 10.8994957,0.069933 c 0.230003,0.089359 0.476324,0.4056135 0.562575,0.6332855 l -0.515953,-0.06993 z m -5.672369,0.023311 -0.210577,0.3993965 0.233888,-0.2579757 0.140644,0.2346647 z m 4.623369,0.5532505 a 0.41649174,0.41649174 0 0 1 0.133651,0.02409 c 0.283618,0.111116 0.207468,0.699333 0.147637,0.923119 -0.0474,0.181827 -0.132097,0.384634 -0.310815,0.469331 -0.129765,-0.233111 -0.32247,-0.38541 -0.562575,-0.497304 -0.119663,-0.05672 -0.318585,-0.07848 -0.401728,-0.18882 -0.08004,-0.106454 -0.161624,-0.501965 -0.05284,-0.606088 0.118109,-0.114225 0.442911,-0.09091 0.59521,-0.09091 0.126657,0 0.304598,-0.03963 0.451458,-0.03341 z m -2.37307,0.0101 -0.39862,0.304598 0.351998,-0.187266 -0.04662,0.281288 c 0.09946,-0.06993 0.135982,-0.288281 0.09324,-0.39862 z m 3.42207,0.139866 c 0.105677,0.0085 0.287504,-0.0015 0.365207,0.0777 0.257199,0.264193 0.112671,0.971296 -0.201252,1.118933 l -0.09324,-0.54004 c 0.02487,0.0015 0.04818,0 0.06993,-0.0023 v 0.0023 h 0.06993 l -0.03108,-0.0101 c 0.276626,-0.06605 0.229226,-0.448351 -0.03963,-0.458452 l -0.06993,-0.02331 0.03808,0.02487 -0.01399,7.77e-4 v -0.0023 h -0.04662 l 0.0078,0.0086 c -0.01787,0.0039 -0.03574,0.0078 -0.05517,0.01554 z m -1.195083,0.0948 c -0.04818,0.04895 -0.118109,0.08547 -0.153853,0.145306 -0.247098,0.423485 0.688455,0.434364 0.424262,-0.02331 -0.0303,-0.05284 -0.08392,-0.08625 -0.129765,-0.121995 l -0.09402,0.04662 h -0.04662 z m -4.922528,0.09324 c 0,0.119664 -0.02331,0.240882 0.09324,0.304599 v -0.233888 l 0.282065,0.09324 z m -1.302314,0.06683 c -0.03574,0.0015 -0.07149,0.0039 -0.104123,0.0039 0.04118,0.150745 0.106454,0.279734 0.234665,0.374532 l -0.140643,-0.304603 0.281287,0.02331 c -0.05439,-0.09868 -0.163955,-0.101791 -0.271186,-0.09713 z m 2.863381,0.0085 c -0.06993,0.0078 -0.130542,0.130543 -0.131319,0.252537 l 0.116555,-0.210577 0.141421,0.09324 c -0.03885,-0.10257 -0.0847,-0.139868 -0.126657,-0.135206 z m -3.764743,0.06527 -0.3986204,0.06993 0.3286864,0.39862 -0.1872657,-0.32791 0.2805107,-0.04662 z m -2.0630332,0.326355 c -0.2385503,0.0101 -0.5128443,0.283618 -0.7024413,0.400174 v 0.04662 l 0.6799072,0.234665 C 8.122743,11.564086 7.8919631,11.511247 7.7381098,11.484828 L 8.206663,11.06212 a 0.29993621,0.29993621 0 0 0 -0.046622,-0.0015 z m 1.2432589,0.04895 -0.9611946,0.257977 v 0.04662 l 0.5151754,0.184935 0.3053755,0.213685 c -0.033413,-0.248652 -0.2976051,-0.291389 -0.4693302,-0.421931 0.2175703,-0.04118 0.5128443,-0.04507 0.6099739,-0.281288 z m 2.4142533,0.257977 c -0.100238,0.01554 -0.178718,0.09324 -0.07071,0.163177 z m 0.773152,0.139866 -0.02331,0.164732 c 0.07304,-0.04351 0.08547,-0.08159 0.06993,-0.163955 z m 1.054439,0 c -0.09091,0.0272 -0.166286,0.09169 -0.06993,0.164732 z m 0.86795,0.234665 -0.234665,0.06993 v 0.09402 z m 0.890484,0.02331 v 0.281288 c 0.0878,-0.08547 0.0878,-0.19426 0,-0.281288 z m 3.319501,0.13909 c 0.330241,0.0031 0.657374,0.306929 0.582778,0.658151 -0.04818,0.22534 -0.188043,0.470107 -0.410275,0.557912 -0.115779,0.04662 -0.37764,0.03108 -0.386965,-0.135981 -0.0078,-0.155408 0.301491,-0.371424 0.363653,-0.539264 -0.433586,0.331795 -0.699333,0.613859 -1.289104,0.539264 V 12.9612 c 0.347336,-0.2572 0.492642,-0.695449 0.822882,-0.951094 a 0.50118875,0.50118875 0 0 1 0.317031,-0.105678 z m -7.726077,0.02487 c -0.113447,0.05906 -0.182603,0.183381 -0.211354,0.305375 l 0.281288,0.06993 -0.155408,-0.149968 z m -3.5627136,0.0474 -0.8912613,0.468554 c 0.031081,0.174833 0.2035837,0.08081 0.3286866,0.07226 0.1787185,-0.01166 0.5105132,0.04662 0.6091969,0.209799 l 0.1639547,-0.02331 c -0.04196,-0.265742 -0.4242621,-0.265742 -0.6325079,-0.28206 0.1530762,-0.155408 0.3729776,-0.201253 0.421931,-0.445243 z m 4.5239086,0.187266 -0.257976,0.328687 0.327909,0.116556 -0.234665,-0.139867 c 0.04895,-0.102569 0.240881,-0.191928 0.164732,-0.305376 z m -2.0397219,0.06993 -0.2812873,0.258753 c 0.1103392,0.03652 0.3636532,0.18105 0.4452422,0.06993 L 9.7770544,12.446023 Z m 6.0709889,0 0.327909,0.258753 v 0.04662 l -0.304598,0.163954 a 0.72886054,0.72886054 0 0 0 0.421931,-0.163951 0.68612351,0.68612351 0 0 0 -0.445242,-0.304599 z m -7.5240478,0.09402 c -0.1421977,0.318585 -0.3605451,0.577338 -0.6091968,0.82055 -0.1429748,0.13909 -0.3659844,0.268855 -0.421931,0.468554 L 8.4646392,13.39867 9.0039028,13.289885 c -0.3216933,-0.230003 -0.885822,0.02564 -1.1958597,0.163178 0.2136851,-0.42737 0.6317309,-0.597541 0.7265294,-1.101838 l -0.023311,-0.02331 z m 4.4298868,0.02331 c -0.101015,0.03341 -0.113447,0.115778 -0.139866,0.211354 l 0.139866,0.02331 z m 0.961195,0.164731 0.02331,0.257977 a 0.39084952,0.39084952 0 0 0 0.211354,-0.257977 l -0.164732,0.116556 z m -3.258116,0.32791 c -0.101014,0.02953 -0.155407,0.101792 -0.04662,0.163955 z m 4.149377,0.140644 -0.02409,0.327909 -0.210577,-0.139866 c 0.02176,0.14142 0.121218,0.2098 0.257976,0.233111 l 0.02331,-0.421154 z m -5.2512149,0.02331 c -0.1709481,0.05361 -0.463114,0.537709 -0.5392636,0.703218 0.1554074,-0.0062 0.695448,0.01399 0.7739287,-0.09324 l -0.5159524,-0.07071 z m 2.8750359,0.04584 c -0.128988,0.0078 -0.254091,0.08159 -0.390072,0.08159 -0.393958,0 -1.041229,-0.195813 -1.37924,0.07149 -0.307707,0.24399 -0.326356,0.570345 -0.519838,0.879606 -0.094022,0.150745 -0.2610845,0.252537 -0.397843,0.361322 -0.050507,0.04041 -0.1429748,0.09868 -0.1235489,0.176387 0.023311,0.0948 0.1849348,0.145306 0.2641926,0.18105 0.1771643,0.08159 0.3706463,0.145306 0.5625743,0.184935 0.101792,0.02098 0.254868,0.01709 0.341897,0.08003 0.158515,0.115002 0.1049,0.507406 0.126657,0.680685 0.176387,-0.101015 0.407167,-0.404059 0.491864,-0.586663 -0.187266,0.05672 -0.269632,0.240881 -0.39862,0.375309 l -0.06993,-0.491865 c 0.547811,-0.04818 0.788692,-0.647271 1.111163,-1.007039 0.19659,-0.219125 0.442911,-0.3147 0.693893,-0.446796 -0.147636,-0.176388 -0.353551,0.0101 -0.492641,0.116555 -0.3722,0.287504 -0.586663,0.634062 -0.913795,0.961972 l 0.187266,-0.491865 h -0.02331 c -0.101792,0.24399 -0.223787,0.505074 -0.468553,0.632508 l 0.09324,-0.327909 h -0.02331 c -0.09868,0.235442 -0.2098,0.35122 -0.468554,0.35122 l 0.233888,-0.539256 h -0.02331 l -0.304598,0.515952 -0.09324,-0.02331 0.233888,-0.445242 h -0.02331 c -0.118109,0.189597 -0.243212,0.458452 -0.491864,0.397843 l 0.2098,-0.397843 c -0.116556,0.09169 -0.16784,0.310815 -0.306153,0.365984 -0.06294,0.02487 -0.1826032,-0.02098 -0.156961,-0.1049 0.032636,-0.108785 0.211354,-0.216016 0.282064,-0.308483 0.240882,-0.3147 0.435141,-0.829098 0.791024,-1.022581 0.292166,-0.159292 0.735854,0.04196 1.055216,0.03885 0.182604,-0.0031 0.390849,-0.06527 0.445242,-0.258753 a 0.33179472,0.33179472 0 0 0 -0.05595,-7.77e-4 z m -5.8984862,0.07149 -0.023311,0.140644 0.093244,-0.140644 z m 11.5584232,0.02253 c 0.177164,0.0031 0.372977,0.02875 0.473992,0.166286 0.103346,0.139867 0.07848,0.331795 0.132096,0.491088 0.04041,-0.16784 0.03574,-0.795686 0.370647,-0.442911 0.271186,0.285172 0.198921,0.902916 -0.0676,1.167109 -0.16784,0.165509 -0.571122,0.266523 -0.770821,0.111893 -0.305375,-0.235442 -0.383856,-0.719536 -0.472438,-1.070757 -0.02098,-0.0847 -0.119664,-0.279733 -0.06527,-0.358214 0.04507,-0.06682 0.1624,-0.06216 0.233111,-0.06372 0.05051,0 0.107231,-0.0016 0.166286,-7.77e-4 z m 2.059147,0.141421 c 0.442134,0.08004 0.477878,0.704772 0.86795,0.891261 v 0.04662 c -0.221455,0.111116 -0.295274,-0.0016 -0.445242,-0.163955 l 0.163955,0.304598 c -0.18105,-0.02797 -0.219901,-0.203583 -0.32791,-0.328686 l 0.163178,0.351997 c -0.268855,0 -0.383079,-0.04429 -0.491864,-0.304598 h -0.02331 l 0.04662,0.210577 -0.166286,-0.11811 0.08858,-0.303044 z m -3.679269,0.02331 c -0.09558,0.02797 -0.146083,0.08159 -0.06993,0.164732 z m -3.234804,0.188043 0.257976,0.281287 0.116555,-0.281287 -0.116555,0.187266 z m 2.367631,0 -0.02331,0.351221 -0.234665,-0.139867 c -0.01321,0.153853 0.223786,0.329464 0.351997,0.397843 l -0.04662,-0.609197 z m -6.3522763,0.397843 c -0.073042,0.351221 -0.3240244,0.667475 -0.5493651,0.937883 -0.1072311,0.128989 -0.2719629,0.258754 -0.3185851,0.421931 0.3885184,-0.111893 0.8259902,-0.506628 1.2432589,-0.468553 -0.107231,-0.208246 -0.6084198,0.08004 -0.7972397,0.116556 0.1522992,-0.225341 0.359768,-0.421154 0.4584517,-0.67913 0.040406,-0.108786 0.066825,-0.254092 -0.036521,-0.328687 z m 5.4377033,0.211354 c -0.178718,0.02797 -0.169394,0.205138 -0.210577,0.351221 -0.09946,-0.09868 -0.200475,-0.235443 -0.35122,-0.210577 l 0.445242,0.539263 z m -2.179588,0.02332 -0.234665,0.211354 -0.02331,-0.117332 h -0.06993 l 0.02331,0.304598 c 0.136758,-0.02331 0.278179,-0.269632 0.304598,-0.39862 z m 0.633285,0.375309 -0.117332,0.304598 h -0.02331 l -0.188042,-0.257976 0.163954,0.539264 h 0.02331 c 0.06216,-0.156962 0.283619,-0.444465 0.141421,-0.585886 z m 2.601519,0.139866 -0.06993,0.02409 0.139867,0.773151 c -0.149191,-0.130542 -0.609974,-0.731968 -0.796463,-0.515175 0.431255,0.137535 0.610751,0.641055 0.984506,0.867173 l -0.116556,-0.445242 z m 1.171772,0.188043 c -0.118887,0.290612 0.170948,0.602204 0.281287,0.867173 -0.304598,-0.156961 -0.575007,-0.418822 -0.937883,-0.42193 v 0.09324 c 0.522169,0.04662 0.800348,0.580446 1.219171,0.821328 -0.0039,-0.437472 -0.379194,-0.940215 -0.515953,-1.359815 z m -4.757797,0.351998 -0.164731,0.02331 c 0.05595,0.131319 0.153076,0.237773 0.198921,0.374532 0.05051,0.152299 0.01787,0.362099 0.176387,0.445242 0.07382,-0.164732 0.254091,-0.432809 0.210577,-0.609197 -0.132096,0.06605 -0.195813,0.208246 -0.2098,0.351998 h -0.02409 z m -2.1803649,0.02331 c 0,0.460006 -0.062163,0.892038 -0.1872659,1.336504 0.1631777,0.0054 0.2486518,-0.163955 0.3364568,-0.282065 0.174833,-0.232334 0.349667,-0.487979 0.624738,-0.609197 v -0.02331 c -0.278956,-0.03652 -0.627069,0.380748 -0.7265297,0.609197 h -0.023311 c 0.082366,-0.318585 0.1554077,-0.717982 0.023311,-1.031128 z m 4.1260659,0.02331 c -0.189597,0.07226 -0.141421,0.326356 -0.141421,0.491865 l -0.538487,-0.374532 c 0.02953,0.09558 0.105677,0.124326 0.177165,0.190374 0.139867,0.129765 0.261861,0.432809 0.455343,0.466222 z m 1.195082,0.445242 c -0.165509,0.292943 0.07537,0.896701 0.116556,1.219171 h -0.02331 c -0.130543,-0.275846 -0.382303,-0.504295 -0.585887,-0.726527 -0.02875,-0.03108 -0.177164,-0.233888 -0.230003,-0.149191 -0.05517,0.08858 0.216016,0.299159 0.266524,0.359768 0.187266,0.222232 0.35666,0.473215 0.498857,0.726529 0.08159,0.14686 0.153077,0.341896 0.308484,0.421931 -0.116556,-0.604535 -0.303044,-1.23238 -0.304598,-1.851679 z m -7.8053346,0.234666 c 0.1732792,0.05128 0.2719629,0.170171 0.2812873,0.35122 l -0.5392636,0.375309 z m 3.8906236,0.186488 -0.02331,0.02409 c 0.114224,0.3147 0.227672,0.576562 0.282841,0.914573 0.02642,0.156961 0.0101,0.361322 0.13909,0.468553 0.132096,-0.250206 0.178718,-0.540041 0.299159,-0.79724 0.06993,-0.147637 0.181827,-0.276625 0.146083,-0.445242 -0.225341,0.111116 -0.358214,0.611528 -0.421931,0.843862 -0.116556,-0.310038 -0.08081,-0.848524 -0.421931,-1.007817 z m 1.593702,0.235443 c 0.26497,0.526053 0.46156,1.021026 0.609974,1.592925 0.164732,-0.09169 0.142198,-0.255645 0.139867,-0.421154 -0.0039,-0.386187 0.144529,-0.769266 0.118109,-1.14846 -0.111116,0.0373 -0.130542,0.150745 -0.149968,0.257976 -0.04662,0.255645 -0.04662,0.519837 -0.108785,0.773151 -0.126657,-0.295274 -0.227672,-0.99383 -0.609197,-1.054438 z m 4.94584,0.186488 0.351997,0.51673 -0.515952,-0.234665 z m -8.4611543,1.055993 c 0.5027428,0.04429 0.1592925,0.506628 -0.046622,0.72653 z m 6.4462973,0.562575 0.211354,0.656596 c -0.174056,-0.121993 -0.379194,-0.321691 -0.46933,-0.51595 z m -4.275256,0.353552 0.2673,0.04507 -0.211354,0.74984 H 11.6062 l -0.04662,-0.585885 z m 2.214555,0.135204 c 0.04818,0 0.09402,0.0101 0.131319,0.04118 0.126657,0.107231 -0.05206,0.625515 -0.109562,0.759165 l -0.257977,-0.74984 c 0.06683,-0.0171 0.155408,-0.04895 0.23622,-0.05051 z"
     id="path1"
     style="stroke-width:0.777037;fill:#ffffff" />
  <metadata
     id="metadata1">
    <rdf:RDF>
      <cc:Work
         rdf:about="">
        <dc:title>OpenBSD icon</dc:title>
      </cc:Work>
    </rdf:RDF>
  </metadata>
</svg>
