<?xml version="1.0" encoding="iso-8859-1"?>
<!-- Uploaded to: SVG Repo, www.svgrepo.com, Generator: SVG Repo Mixer Tools -->
<svg version="1.1" id="Layer_1" xmlns="http://www.w3.org/2000/svg" xmlns:xlink="http://www.w3.org/1999/xlink" 
	 viewBox="0 0 512 512" xml:space="preserve">
<polygon style="fill:#FFC1A6;" points="373.106,8.17 264.17,228.766 373.106,449.362 405.787,449.362 405.787,8.17 "/>
<polygon style="fill:#FFDBCC;" points="373.106,416.681 373.106,449.362 51.745,449.362 51.745,8.17 373.106,8.17 373.106,40.851 
	324.085,228.766 "/>
<polygon style="fill:#737373;" points="373.106,228.766 373.106,416.681 340.426,416.681 285.957,322.723 340.426,228.766 "/>
<g>
	<polygon style="fill:#969696;" points="373.106,40.851 373.106,228.766 340.426,228.766 285.957,134.809 340.426,40.851 	"/>
	<rect x="84.426" y="228.766" style="fill:#969696;" width="256" height="187.915"/>
</g>
<rect x="84.426" y="40.851" style="fill:#B9B9B9;" width="256" height="187.915"/>
<polygon style="fill:#FFDBCC;" points="277.787,312.102 277.787,366.57 245.106,366.57 212.426,339.336 245.106,312.102 "/>
<rect x="179.745" y="312.102" style="fill:#FFFFFF;" width="65.362" height="54.468"/>
<polygon style="fill:#FFDBCC;" points="277.787,123.643 277.787,178.111 245.106,178.111 212.426,150.877 245.106,123.643 "/>
<rect x="179.745" y="123.643" style="fill:#FFFFFF;" width="65.362" height="54.468"/>
<path style="fill:#02ACAB;" d="M351.319,285.957V503.83c60.165,0,108.936-48.771,108.936-108.936S411.485,285.957,351.319,285.957z"
	/>
<path style="fill:#42C8C6;" d="M351.319,285.957c42.115,0,76.255,48.771,76.255,108.936S393.434,503.83,351.319,503.83
	c-60.165,0-108.936-48.771-108.936-108.936S291.154,285.957,351.319,285.957z"/>
<path style="fill:#FFFFFF;" d="M405.787,378.553H367.66v-38.128c0-9.024-7.316-16.34-16.34-16.34c-9.024,0-16.34,7.316-16.34,16.34
	v38.128h-38.128c-9.024,0-16.34,7.316-16.34,16.34c0,9.024,7.316,16.34,16.34,16.34h38.128v38.128c0,9.024,7.316,16.34,16.34,16.34
	c9.024,0,16.34-7.316,16.34-16.34v-38.128h38.128c9.024,0,16.34-7.316,16.34-16.34C422.128,385.869,414.811,378.553,405.787,378.553
	z"/>
<path d="M220.601,441.191H59.915V16.34h337.702v247.836c0,4.512,3.657,8.17,8.17,8.17c4.513,0,8.17-3.658,8.17-8.17V8.17
	c0-4.512-3.657-8.17-8.17-8.17H51.745c-4.512,0-8.17,3.658-8.17,8.17v441.191c0,4.512,3.658,8.17,8.17,8.17h168.857
	c4.512,0,8.17-3.658,8.17-8.17C228.771,444.85,225.113,441.191,220.601,441.191z"/>
<path d="M373.106,263.123c4.513,0,8.17-3.658,8.17-8.17V40.851c0-4.512-3.657-8.17-8.17-8.17H84.426c-4.512,0-8.17,3.658-8.17,8.17
	v375.83c0,4.512,3.658,8.17,8.17,8.17h126.953c4.512,0,8.17-3.658,8.17-8.17c0-4.512-3.658-8.17-8.17-8.17H92.596V236.936h272.34
	v18.017C364.936,259.465,368.593,263.123,373.106,263.123z M92.596,220.596V49.021h272.34v171.574H92.596z"/>
<path d="M236.496,320.272c4.512,0,8.17-3.658,8.17-8.17c0-4.512-3.658-8.17-8.17-8.17h-56.751c-4.512,0-8.17,3.658-8.17,8.17v54.468
	c0,4.512,3.658,8.17,8.17,8.17h32.805c4.512,0,8.17-3.658,8.17-8.17c0-4.512-3.658-8.17-8.17-8.17h-24.635v-38.128H236.496z"/>
<path d="M253.277,279.421c0-4.512-3.658-8.17-8.17-8.17h-32.681c-4.512,0-8.17,3.658-8.17,8.17s3.658,8.17,8.17,8.17h32.681
	C249.619,287.591,253.277,283.933,253.277,279.421z"/>
<path d="M277.787,115.472h-98.043c-4.512,0-8.17,3.658-8.17,8.17v54.468c0,4.512,3.658,8.17,8.17,8.17h98.043
	c4.513,0,8.17-3.658,8.17-8.17v-54.468C285.957,119.129,282.3,115.472,277.787,115.472z M269.617,169.94h-81.702v-38.128h81.702
	V169.94z"/>
<path d="M212.426,99.132h32.681c4.512,0,8.17-3.658,8.17-8.17c0-4.512-3.658-8.17-8.17-8.17h-32.681c-4.512,0-8.17,3.658-8.17,8.17
	C204.255,95.474,207.913,99.132,212.426,99.132z"/>
<path d="M351.319,277.787c-64.572,0-117.106,52.533-117.106,117.106S286.747,512,351.319,512s117.106-52.533,117.106-117.106
	S415.891,277.787,351.319,277.787z M351.319,495.66c-55.563,0-100.766-45.203-100.766-100.766s45.203-100.766,100.766-100.766
	s100.766,45.203,100.766,100.766S406.882,495.66,351.319,495.66z"/>
<path d="M405.787,370.383H375.83v-29.957c0-13.516-10.996-24.511-24.511-24.511c-13.515,0-24.511,10.995-24.511,24.511v29.957
	h-29.957c-13.515,0-24.511,10.995-24.511,24.511c0,13.516,10.996,24.511,24.511,24.511h29.957v29.957
	c0,13.516,10.996,24.511,24.511,24.511c13.515,0,24.511-10.995,24.511-24.511v-29.957h29.957c13.515,0,24.511-10.995,24.511-24.511
	C430.298,381.378,419.302,370.383,405.787,370.383z M405.787,403.064H367.66c-4.513,0-8.17,3.658-8.17,8.17v38.128
	c0,4.506-3.665,8.17-8.17,8.17c-4.506,0-8.17-3.665-8.17-8.17v-38.128c0-4.512-3.657-8.17-8.17-8.17h-38.128
	c-4.506,0-8.17-3.665-8.17-8.17s3.665-8.17,8.17-8.17h38.128c4.513,0,8.17-3.658,8.17-8.17v-38.128c0-4.506,3.665-8.17,8.17-8.17
	c4.506,0,8.17,3.665,8.17,8.17v38.128c0,4.512,3.657,8.17,8.17,8.17h38.128c4.506,0,8.17,3.665,8.17,8.17
	S410.293,403.064,405.787,403.064z"/>
</svg>