<?xml version="1.0" encoding="UTF-8" standalone="no"?>
<!-- Uploaded to: SVG Repo, www.svgrepo.com, Generator: SVG Repo Mixer Tools -->

<svg
   height="800px"
   width="800px"
   version="1.1"
   id="_x32_"
   viewBox="0 0 512 512"
   xml:space="preserve"
   sodipodi:docname="question.svg"
   inkscape:version="1.4 (e7c3feb, 2024-10-09)"
   xmlns:inkscape="http://www.inkscape.org/namespaces/inkscape"
   xmlns:sodipodi="http://sodipodi.sourceforge.net/DTD/sodipodi-0.dtd"
   xmlns="http://www.w3.org/2000/svg"
   xmlns:svg="http://www.w3.org/2000/svg"><defs
   id="defs1" /><sodipodi:namedview
   id="namedview1"
   pagecolor="#ffffff"
   bordercolor="#000000"
   borderopacity="0.25"
   inkscape:showpageshadow="2"
   inkscape:pageopacity="0.0"
   inkscape:pagecheckerboard="0"
   inkscape:deskcolor="#d1d1d1"
   inkscape:zoom="0.9725"
   inkscape:cx="400"
   inkscape:cy="400"
   inkscape:window-width="1920"
   inkscape:window-height="1003"
   inkscape:window-x="1920"
   inkscape:window-y="0"
   inkscape:window-maximized="1"
   inkscape:current-layer="_x32_" />
<style
   type="text/css"
   id="style1">
	.st0{fill:#000000;}
</style>
<g
   id="g1"
   transform="matrix(0.75,0,0,0.75,64,64)"
   style="fill:#ffffff">
	<path
   class="st0"
   d="M 256,0 C 114.616,0 0,114.612 0,256 0,397.388 114.616,512 256,512 397.384,512 512,397.388 512,256 512,114.612 397.385,0 256,0 Z m -48.322,378.794 c 0,-17.612 14.281,-31.893 31.893,-31.893 17.599,0 31.88,14.281 31.88,31.893 0,17.595 -14.281,31.884 -31.88,31.884 -17.612,0 -31.893,-14.289 -31.893,-31.884 z M 343.625,218.852 c -3.596,9.793 -8.802,18.289 -14.695,25.356 -11.847,14.148 -25.888,22.718 -37.442,29.041 -7.719,4.174 -14.533,7.389 -18.769,9.769 -2.905,1.604 -4.479,2.95 -5.256,3.826 -0.768,0.926 -1.029,1.306 -1.496,2.826 -0.273,1.009 -0.558,2.612 -0.558,5.091 0,6.868 0,12.512 0,12.512 0,6.472 -5.248,11.728 -11.723,11.728 h -28.252 c -6.475,0 -11.732,-5.256 -11.732,-11.728 0,0 0,-5.645 0,-12.512 0,-6.438 0.752,-12.744 2.405,-18.777 1.636,-6.008 4.215,-11.718 7.508,-16.694 6.599,-10.083 15.542,-16.802 23.984,-21.48 7.401,-4.074 14.723,-7.455 21.516,-11.281 6.789,-3.793 12.843,-7.91 17.302,-12.372 2.988,-2.975 5.31,-6.05 7.087,-9.52 2.335,-4.628 3.955,-10.067 3.992,-18.389 0.012,-2.463 -0.698,-5.702 -2.632,-9.405 -1.926,-3.686 -5.066,-7.694 -9.264,-11.29 -8.45,-7.248 -20.843,-12.545 -35.054,-12.521 -16.285,0.058 -27.186,3.876 -35.587,8.62 -8.36,4.776 -11.029,9.595 -11.029,9.595 -4.268,3.718 -10.603,3.85 -15.025,0.314 l -21.71,-17.397 c -2.719,-2.173 -4.322,-5.438 -4.396,-8.926 -0.063,-3.479 1.425,-6.81 4.061,-9.099 0,0 6.765,-10.43 22.451,-19.38 15.62,-8.992 36.322,-15.488 61.236,-15.429 20.215,0 38.839,5.562 54.268,14.661 15.434,9.148 27.897,21.744 35.851,36.876 5.281,10.074 8.525,21.43 8.533,33.38 0.012,11.795 -1.951,22.811 -5.574,32.605 z"
   id="path1"
   style="fill:#ffffff" />
</g>
</svg>
