<?xml version="1.0" encoding="UTF-8" standalone="no"?>
<!-- Uploaded to: SVG Repo, www.svgrepo.com, Generator: SVG Repo Mixer Tools -->

<svg
   fill="#000000"
   height="800px"
   width="800px"
   version="1.1"
   id="Layer_1"
   viewBox="0 0 512 512"
   xml:space="preserve"
   sodipodi:docname="translate.svg"
   inkscape:version="1.4 (e7c3feb, 2024-10-09)"
   xmlns:inkscape="http://www.inkscape.org/namespaces/inkscape"
   xmlns:sodipodi="http://sodipodi.sourceforge.net/DTD/sodipodi-0.dtd"
   xmlns="http://www.w3.org/2000/svg"
   xmlns:svg="http://www.w3.org/2000/svg"><defs
   id="defs8" /><sodipodi:namedview
   id="namedview8"
   pagecolor="#ffffff"
   bordercolor="#000000"
   borderopacity="0.25"
   inkscape:showpageshadow="2"
   inkscape:pageopacity="0.0"
   inkscape:pagecheckerboard="0"
   inkscape:deskcolor="#d1d1d1"
   inkscape:zoom="0.9725"
   inkscape:cx="400"
   inkscape:cy="400"
   inkscape:window-width="1920"
   inkscape:window-height="1003"
   inkscape:window-x="1920"
   inkscape:window-y="0"
   inkscape:window-maximized="1"
   inkscape:current-layer="Layer_1" />



<g
   id="g9"
   transform="matrix(0.75000146,0,0,0.75000146,63.999626,64.000001)"><g
     id="g2"
     style="fill:#ffffff">
	<g
   id="g1"
   style="fill:#ffffff">
		<path
   d="M 462.863,95.24 H 270.286 L 241.455,7.197 C 240.049,2.904 236.042,0 231.524,0 H 49.137 C 22.043,0 0,22.043 0,49.138 v 318.478 c 0,27.095 22.043,49.138 49.137,49.138 h 192.115 l 29.311,88.095 c 1.42,4.269 5.415,7.15 9.914,7.15 H 462.861 C 489.957,512 512,489.957 512,462.862 V 144.38 C 512,117.285 489.957,95.24 462.863,95.24 Z M 49.137,395.857 c -15.571,0 -28.239,-12.669 -28.239,-28.241 V 49.138 c 0,-15.571 12.668,-28.24 28.239,-28.24 h 174.814 l 122.783,374.96 H 49.137 Z M 350.458,286.536 c 4.473,6.841 9.853,14.435 16.206,22.461 -5.947,6.704 -12.52,13.493 -19.759,20.226 l -28.768,-87.852 h 8.273 c 3.62,8.945 11.118,25.395 24.048,45.165 z m -1.266,-45.165 h 62.165 c -5.469,11.908 -15.308,30.468 -31.079,51.099 -4.545,-5.928 -8.505,-11.556 -11.901,-16.717 -9.028,-13.722 -15.237,-25.776 -19.185,-34.382 z m -85.914,175.384 h 75.328 l -54.084,63.85 z m 199.585,74.347 H 303.018 l 65.929,-77.834 c 1.657,-1.849 2.673,-4.284 2.673,-6.961 0,-1.378 -0.266,-2.695 -0.751,-3.9 l -16.85,-51.458 c 9.785,-8.559 18.525,-17.252 26.302,-25.839 17.544,19.367 40.485,39.927 69.799,57.876 1.703,1.043 3.586,1.539 5.446,1.539 3.516,0 6.951,-1.775 8.921,-4.994 3.013,-4.921 1.466,-11.354 -3.456,-14.367 -28.471,-17.434 -50.493,-37.492 -67.082,-56.152 23.199,-29.342 35.285,-55.429 40.202,-67.64 h 30.828 c 5.77,0 10.449,-4.678 10.449,-10.449 0,-5.771 -4.679,-10.449 -10.449,-10.449 H 390.072 V 202.71 c 0,-5.771 -4.679,-10.449 -10.449,-10.449 -5.77,0 -10.449,4.678 -10.449,10.449 v 17.763 H 311.292 L 277.127,116.138 h 185.734 c 15.571,0 28.239,12.669 28.239,28.24 v 318.483 h 10e-4 c 10e-4,15.572 -12.667,28.241 -28.238,28.241 z"
   id="path1"
   style="fill:#ffffff" />
	</g>
</g><g
     id="g4"
     style="fill:#ffffff">
	<g
   id="g3"
   style="fill:#ffffff">
		<path
   d="m 213.613,199.016 h -59.202 c -5.771,0 -10.449,4.678 -10.449,10.449 0,5.771 4.678,10.449 10.449,10.449 h 47.777 c -4.91,25.944 -27.75,45.628 -55.1,45.628 -30.921,0 -56.077,-25.156 -56.077,-56.077 0,-30.921 25.156,-56.077 56.077,-56.077 13.315,0 26.223,4.747 36.343,13.368 4.391,3.742 10.988,3.215 14.73,-1.178 3.742,-4.394 3.214,-10.988 -1.179,-14.73 -13.897,-11.839 -31.617,-18.358 -49.894,-18.358 -42.444,0 -76.974,34.531 -76.974,76.974 -0.001,42.443 34.529,76.973 76.973,76.973 42.444,0 76.974,-34.531 76.974,-76.975 0.001,-5.767 -4.677,-10.446 -10.448,-10.446 z"
   id="path2"
   style="fill:#ffffff" />
	</g>
</g><g
     id="g6"
     style="fill:#ffffff">
	<g
   id="g5"
   style="fill:#ffffff">
		<path
   d="m 201.622,351.434 h -4.678 c -5.77,0 -10.449,4.678 -10.449,10.449 0,5.771 4.679,10.449 10.449,10.449 h 4.678 c 5.77,0 10.449,-4.678 10.449,-10.449 0,-5.771 -4.679,-10.449 -10.449,-10.449 z"
   id="path4"
   style="fill:#ffffff" />
	</g>
</g><g
     id="g8"
     style="fill:#ffffff">
	<g
   id="g7"
   style="fill:#ffffff">
		<path
   d="M 163.141,351.434 H 61.649 c -5.77,0 -10.449,4.678 -10.449,10.449 0,5.771 4.679,10.449 10.449,10.449 h 101.492 c 5.77,0 10.449,-4.678 10.449,-10.449 0,-5.771 -4.679,-10.449 -10.449,-10.449 z"
   id="path6"
   style="fill:#ffffff" />
	</g>
</g></g>
</svg>
