<?xml version="1.0" encoding="UTF-8" standalone="no"?>
<!-- Created with Inkscape (http://www.inkscape.org/) -->

<svg
   width="1024"
   height="300"
   viewBox="0 0 270.93333 79.375"
   version="1.1"
   id="svg1"
   inkscape:version="1.4 (e7c3feb, 2024-10-09)"
   sodipodi:docname="rx-design-hover.svg"
   inkscape:export-filename="FinalDarkBGMedia.png"
   inkscape:export-xdpi="96"
   inkscape:export-ydpi="96"
   xmlns:inkscape="http://www.inkscape.org/namespaces/inkscape"
   xmlns:sodipodi="http://sodipodi.sourceforge.net/DTD/sodipodi-0.dtd"
   xmlns:xlink="http://www.w3.org/1999/xlink"
   xmlns="http://www.w3.org/2000/svg"
   xmlns:svg="http://www.w3.org/2000/svg">
  <sodipodi:namedview
     id="namedview1"
     pagecolor="#000000"
     bordercolor="#000000"
     borderopacity="0.25"
     inkscape:showpageshadow="2"
     inkscape:pageopacity="0.0"
     inkscape:pagecheckerboard="0"
     inkscape:deskcolor="#d1d1d1"
     inkscape:document-units="px"
     inkscape:zoom="0.83789063"
     inkscape:cx="535.27272"
     inkscape:cy="174.24709"
     inkscape:window-width="1920"
     inkscape:window-height="1003"
     inkscape:window-x="0"
     inkscape:window-y="0"
     inkscape:window-maximized="1"
     inkscape:current-layer="g8" />
  <defs
     id="defs1">
    <linearGradient
       id="linearGradient5"
       inkscape:collect="always">
      <stop
         style="stop-color:#832e9d;stop-opacity:1"
         offset="0"
         id="stop5" />
      <stop
         style="stop-color:#ff1a75;stop-opacity:1"
         offset="1"
         id="stop6" />
    </linearGradient>
    <linearGradient
       inkscape:collect="always"
       xlink:href="#linearGradient148"
       id="linearGradient234"
       gradientUnits="userSpaceOnUse"
       gradientTransform="translate(281.59312,9.0234677e-4)"
       x1="2445.3826"
       y1="145.05458"
       x2="2431.8884"
       y2="125.87694" />
    <linearGradient
       id="linearGradient148"
       inkscape:collect="always">
      <stop
         style="stop-color:#ff1a75;stop-opacity:1;"
         offset="0"
         id="stop148" />
      <stop
         style="stop-color:#f01c79;stop-opacity:1;"
         offset="0.36501095"
         id="stop152" />
      <stop
         style="stop-color:#bb248a;stop-opacity:1;"
         offset="0.55581295"
         id="stop150" />
      <stop
         style="stop-color:#9d2994;stop-opacity:1;"
         offset="0.7229892"
         id="stop151" />
      <stop
         style="stop-color:#832e9d;stop-opacity:1;"
         offset="1"
         id="stop149" />
    </linearGradient>
    <linearGradient
       inkscape:collect="always"
       xlink:href="#linearGradient253"
       id="linearGradient254"
       x1="638.28949"
       y1="372.04129"
       x2="647.65472"
       y2="372.04129"
       gradientUnits="userSpaceOnUse" />
    <linearGradient
       id="linearGradient253"
       inkscape:collect="always">
      <stop
         style="stop-color:#87de87;stop-opacity:1;"
         offset="0"
         id="stop253" />
      <stop
         style="stop-color:#4acd4a;stop-opacity:1;"
         offset="1"
         id="stop254" />
    </linearGradient>
    <linearGradient
       inkscape:collect="always"
       xlink:href="#linearGradient148"
       id="linearGradient252"
       x1="628.48602"
       y1="363.82605"
       x2="641.88239"
       y2="363.82605"
       gradientUnits="userSpaceOnUse" />
    <linearGradient
       inkscape:collect="always"
       xlink:href="#linearGradient90"
       id="linearGradient232"
       gradientUnits="userSpaceOnUse"
       x1="629.03357"
       y1="363.86285"
       x2="634.70197"
       y2="355.61877" />
    <linearGradient
       id="linearGradient90"
       inkscape:collect="always">
      <stop
         style="stop-color:#4ccfff;stop-opacity:1;"
         offset="0"
         id="stop90" />
      <stop
         style="stop-color:#4c8fff;stop-opacity:1;"
         offset="1"
         id="stop91" />
    </linearGradient>
    <linearGradient
       inkscape:collect="always"
       xlink:href="#linearGradient5"
       id="linearGradient6"
       x1="73.641037"
       y1="88.869156"
       x2="73.641037"
       y2="78.650299"
       gradientUnits="userSpaceOnUse"
       gradientTransform="translate(-4.7800281)" />
  </defs>
  <g
     inkscape:label="Layer 1"
     inkscape:groupmode="layer"
     id="layer1">
    <g
       id="g3"
       transform="matrix(1.4861859,0,0,1.4861859,-19.643595,-53.158499)">
      <g
         id="g4"
         transform="matrix(1.83149,0,0,1.83149,-28.665095,-99.308687)">
        <g
           id="g2"
           transform="matrix(0.75236557,0,0,0.75236557,17.231559,21.954263)">
          <g
             id="g8"
             transform="translate(0,-0.5258273)">
            <g
               id="g1"
               transform="matrix(0.27008638,0,0,0.27008638,37.053346,60.597447)">
              <path
                 id="path218"
                 style="color:#000000;-inkscape-font-specification:'Montserrat Semi-Bold';fill:url(#linearGradient234);stroke-width:0.733727;stroke-linecap:round;stroke-linejoin:round;stroke-dashoffset:48.902;-inkscape-stroke:none;paint-order:markers fill stroke"
                 d="m 2711.7824,125.87784 a 0.36690018,0.36690018 0 0 0 -0.2987,0.58188 l 5.533,7.71477 -5.8555,8.0393 a 0.36690018,0.36690018 0 0 0 0.2966,0.58395 h 3.422 a 0.36690018,0.36690018 0 0 0 0.2987,-0.15658 l 4.0509,-5.72834 5.7108,7.98815 a 0.36690018,0.36690018 0 0 0 0.2992,0.15451 h 3.4727 a 0.36690018,0.36690018 0 0 0 0.2966,-0.58188 l -7.5489,-10.41228 5.5082,-7.59954 a 0.36690018,0.36690018 0 0 0 -0.2972,-0.58394 h -3.2597 a 0.36690018,0.36690018 0 0 0 -0.2987,0.15606 l -3.7951,5.33818 -3.8396,-5.34024 a 0.36690018,0.36690018 0 0 0 -0.2971,-0.154 z"
                 transform="translate(-2529.0597,-8.9679991e-4)" />
              <g
                 id="g221"
                 style="fill:#ffffff"
                 transform="translate(-281.1095,-1.2145396e-4)">
                <path
                   style="font-weight:600;font-size:17.7259px;line-height:0.6;font-family:Montserrat;-inkscape-font-specification:'Montserrat Semi-Bold';text-align:center;letter-spacing:2.07725px;text-anchor:middle;fill:#ffffff;fill-opacity:0.997864;stroke-width:0.940759;stroke-linecap:round;stroke-linejoin:round;stroke-dashoffset:48.902;stroke-opacity:0.36;paint-order:markers fill stroke"
                   d="m 505.11236,126.24478 v 16.18495 h 3.00565 v -4.71643 h 3.65342 c 0.27746,0 0.48546,-0.008 0.62418,-0.023 l 3.30629,4.73935 h 3.23686 l -3.72219,-5.31769 c 1.10984,-0.4316 1.95752,-1.08696 2.54324,-1.96556 0.60116,-0.87862 0.90191,-1.92678 0.90191,-3.14452 0,-1.18689 -0.27756,-2.21187 -0.83248,-3.07508 -0.55492,-0.8632 -1.35687,-1.52605 -2.40505,-1.98848 -1.03275,-0.46244 -2.25005,-0.69362 -3.65276,-0.69362 z m 3.00565,2.54325 h 3.51457 c 1.31022,0 2.3045,0.27754 2.98273,0.83246 0.67823,0.55493 1.01717,1.34872 1.01717,2.38147 0,1.03277 -0.33894,1.83473 -1.01717,2.40505 -0.67823,0.55492 -1.67251,0.83248 -2.98273,0.83248 h -3.51457 z"
                   id="path219" />
                <path
                   style="font-weight:600;font-size:17.7259px;line-height:0.6;font-family:Montserrat;-inkscape-font-specification:'Montserrat Semi-Bold';text-align:center;letter-spacing:2.07725px;text-anchor:middle;fill:#ffffff;fill-opacity:0.997864;stroke-width:0.940759;stroke-linecap:round;stroke-linejoin:round;stroke-dashoffset:48.902;stroke-opacity:0.36;paint-order:markers fill stroke"
                   d="m 455.13434,126.24478 v 16.18495 h 3.00565 v -16.18495 z"
                   id="path220" />
                <path
                   style="font-weight:600;font-size:17.7259px;line-height:0.6;font-family:Montserrat;-inkscape-font-specification:'Montserrat Semi-Bold';text-align:center;letter-spacing:2.07725px;text-anchor:middle;fill:#ffffff;fill-opacity:0.997864;stroke-width:0.940759;stroke-linecap:round;stroke-linejoin:round;stroke-dashoffset:48.902;stroke-opacity:0.36;paint-order:markers fill stroke"
                   d="m 491.39516,126.01358 c -1.64934,0 -3.13668,0.36211 -4.46231,1.08659 -1.32563,0.70906 -2.36627,1.70334 -3.12158,2.98273 -0.7553,1.26398 -1.1331,2.68243 -1.1331,4.25469 0,1.57227 0.3778,2.99822 1.1331,4.27761 0.75531,1.26397 1.79595,2.25827 3.12158,2.98274 1.32563,0.70906 2.81297,1.06367 4.46231,1.06367 1.64933,0 3.13666,-0.35461 4.4623,-1.06367 1.32563,-0.72447 2.3663,-1.71877 3.1216,-2.98274 0.75531,-1.26397 1.1331,-2.68992 1.1331,-4.27761 0,-1.58768 -0.37779,-3.01363 -1.1331,-4.27761 -0.7553,-1.26397 -1.79597,-2.25075 -3.1216,-2.95981 -1.32564,-0.72448 -2.81297,-1.08659 -4.4623,-1.08659 z m 0,2.63626 c 1.07901,0 2.05011,0.24619 2.91331,0.73945 0.86321,0.47785 1.54106,1.15638 2.03432,2.03499 0.49325,0.86321 0.74012,1.83431 0.74012,2.91331 0,1.07901 -0.24687,2.05759 -0.74012,2.93622 -0.49326,0.8632 -1.17111,1.54174 -2.03432,2.035 -0.8632,0.47784 -1.8343,0.71654 -2.91331,0.71654 -1.07901,0 -2.05009,-0.2387 -2.9133,-0.71654 -0.8632,-0.49326 -1.54175,-1.1718 -2.03501,-2.035 -0.49324,-0.87863 -0.73945,-1.85721 -0.73945,-2.93622 0,-1.079 0.24621,-2.0501 0.73945,-2.91331 0.49326,-0.87861 1.17181,-1.55714 2.03501,-2.03499 0.86321,-0.49326 1.83429,-0.73945 2.9133,-0.73945 z"
                   id="path221" />
              </g>
              <g
                 id="g226"
                 transform="translate(-281.1095,-1.2145396e-4)"
                 style="fill:#ffffff">
                <path
                   style="font-weight:600;font-size:17.7259px;line-height:0.6;font-family:Montserrat;-inkscape-font-specification:'Montserrat Semi-Bold';text-align:center;letter-spacing:2.07725px;text-anchor:middle;fill:#ffffff;fill-opacity:0.997864;stroke-width:0.940759;stroke-linecap:round;stroke-linejoin:round;stroke-dashoffset:48.902;stroke-opacity:0.36;paint-order:markers fill stroke"
                   d="m 434.22623,126.24478 v 16.18495 h 7.07498 c 1.72642,0 3.2608,-0.33076 4.60183,-0.99357 1.34106,-0.67824 2.38104,-1.6268 3.12092,-2.84455 0.73989,-1.23314 1.11019,-2.65093 1.11019,-4.25402 0,-1.6031 -0.3703,-3.01337 -1.11019,-4.2311 -0.73988,-1.23314 -1.77986,-2.18105 -3.12092,-2.84387 -1.34103,-0.67824 -2.87541,-1.01784 -4.60183,-1.01784 z m 3.00565,2.54325 h 3.93114 c 1.18691,0 2.22689,0.23184 3.12092,0.69427 0.90945,0.44702 1.60367,1.09419 2.08151,1.94198 0.49327,0.83238 0.73945,1.80347 0.73945,2.91331 0,1.10983 -0.24618,2.08842 -0.73945,2.93622 -0.47784,0.83237 -1.17206,1.48024 -2.08151,1.94266 -0.89403,0.44702 -1.93401,0.67002 -3.12092,0.67002 h -3.93114 z"
                   id="path222" />
                <path
                   style="font-weight:600;font-size:17.7259px;line-height:0.6;font-family:Montserrat;-inkscape-font-specification:'Montserrat Semi-Bold';text-align:center;letter-spacing:2.07725px;text-anchor:middle;fill:#ffffff;fill-opacity:0.997864;stroke-width:0.940759;stroke-linecap:round;stroke-linejoin:round;stroke-dashoffset:48.902;stroke-opacity:0.36;paint-order:markers fill stroke"
                   d="m 414.8442,126.24478 v 16.18495 h 2.98274 v -10.95961 l 8.92461,10.95961 h 2.47448 v -16.18495 h -2.98273 v 10.95961 l -8.92529,-10.95961 z"
                   id="path223" />
                <path
                   style="font-weight:600;font-size:17.7259px;line-height:0.6;font-family:Montserrat;-inkscape-font-specification:'Montserrat Semi-Bold';text-align:center;letter-spacing:2.07725px;text-anchor:middle;fill:#ffffff;fill-opacity:0.997864;stroke-width:0.940759;stroke-linecap:round;stroke-linejoin:round;stroke-dashoffset:48.902;stroke-opacity:0.36;paint-order:markers fill stroke"
                   d="m 399.57801,126.24478 -7.28326,16.18495 h 3.098 l 1.5955,-3.7451 h 8.09215 l 1.61909,3.7451 h 3.14452 l -7.30686,-16.18495 z m 1.45666,3.00632 3.05148,7.07498 h -6.08073 z"
                   id="path224" />
                <path
                   style="font-weight:600;font-size:17.7259px;line-height:0.6;font-family:Montserrat;-inkscape-font-specification:'Montserrat Semi-Bold';text-align:center;letter-spacing:2.07725px;text-anchor:middle;fill:#ffffff;fill-opacity:0.997864;stroke-width:0.940759;stroke-linecap:round;stroke-linejoin:round;stroke-dashoffset:48.902;stroke-opacity:0.36;paint-order:markers fill stroke"
                   d="m 375.82671,126.24478 v 16.18495 h 11.46785 v -2.54324 h -8.4622 v -13.64171 z"
                   id="path225" />
                <path
                   style="font-weight:600;font-size:17.7259px;line-height:0.6;font-family:Montserrat;-inkscape-font-specification:'Montserrat Semi-Bold';text-align:center;letter-spacing:2.07725px;text-anchor:middle;fill:#ffffff;fill-opacity:0.997864;stroke-width:0.940759;stroke-linecap:round;stroke-linejoin:round;stroke-dashoffset:48.902;stroke-opacity:0.36;paint-order:markers fill stroke"
                   d="m 362.10951,126.01358 c -1.64934,0 -3.13667,0.36211 -4.4623,1.08659 -1.32563,0.70906 -2.36628,1.70334 -3.12159,2.98273 -0.75529,1.26398 -1.1331,2.68243 -1.1331,4.25469 0,1.57227 0.37781,2.99822 1.1331,4.27761 0.75531,1.26397 1.79596,2.25827 3.12159,2.98274 1.32563,0.70906 2.81296,1.06367 4.4623,1.06367 1.64933,0 3.13666,-0.35461 4.46231,-1.06367 1.32562,-0.72447 2.3663,-1.71877 3.12159,-2.98274 0.75531,-1.26397 1.1331,-2.68992 1.1331,-4.27761 0,-1.58768 -0.37779,-3.01363 -1.1331,-4.27761 -0.75529,-1.26397 -1.79597,-2.25075 -3.12159,-2.95981 -1.32565,-0.72448 -2.81298,-1.08659 -4.46231,-1.08659 z m 0,2.63626 c 1.07901,0 2.05012,0.24619 2.91331,0.73945 0.86321,0.47785 1.54106,1.15638 2.03432,2.03499 0.49326,0.86321 0.74013,1.83431 0.74013,2.91331 0,1.07901 -0.24687,2.05759 -0.74013,2.93622 -0.49326,0.8632 -1.17111,1.54174 -2.03432,2.035 -0.86319,0.47784 -1.8343,0.71654 -2.91331,0.71654 -1.07901,0 -2.05009,-0.2387 -2.9133,-0.71654 -0.86319,-0.49326 -1.54175,-1.1718 -2.03501,-2.035 -0.49324,-0.87863 -0.73945,-1.85721 -0.73945,-2.93622 0,-1.079 0.24621,-2.0501 0.73945,-2.91331 0.49326,-0.87861 1.17182,-1.55714 2.03501,-2.03499 0.86321,-0.49326 1.83429,-0.73945 2.9133,-0.73945 z"
                   id="path226" />
              </g>
              <g
                 id="g232"
                 transform="translate(-281.1095,-1.2145396e-4)">
                <g
                   id="g231">
                  <path
                     style="fill:url(#linearGradient254)"
                     d="m 639.53393,367.95408 c -0.14497,0 -0.3129,0.0252 -0.48571,0.0987 -0.13663,0.0581 -0.27391,0.14571 -0.39578,0.2686 -0.10581,0.10671 -0.19965,0.24023 -0.26583,0.39855 -0.0602,0.1439 -0.0971,0.30832 -0.0971,0.48729 0,0.16718 0.0323,0.3323 0.0971,0.48729 0.0613,0.14666 0.15089,0.28255 0.26583,0.39855 0.11027,0.11128 0.24375,0.20431 0.39578,0.269 0.14753,0.0628 0.31167,0.0987 0.48571,0.0987 h 0.75035 l 2.58106,2.63851 2.66623,2.72526 c 0.0949,0.097 0.2076,0.17365 0.33239,0.22582 0.11898,0.0497 0.24765,0.0769 0.37954,0.0781 0.12693,0.001 0.25702,-0.022 0.38151,-0.0713 0.12082,-0.0479 0.23594,-0.12037 0.33675,-0.21909 l 0.38745,-0.37913 c 0.099,-0.0969 0.17521,-0.21032 0.22661,-0.33239 0.0509,-0.12098 0.0772,-0.25 0.0788,-0.37954 0.002,-0.12897 -0.0211,-0.25842 -0.0693,-0.38111 -0.0482,-0.12271 -0.12141,-0.23772 -0.21869,-0.33715 l -5.58365,-5.70804 c -0.10549,-0.10787 -0.22556,-0.18273 -0.34625,-0.23097 -0.18614,-0.0954 -0.38156,-0.13549 -0.56573,-0.13549 z"
                     transform="matrix(1.3043937,0,0,1.3043937,-505.85301,-337.02514)"
                     id="path227" />
                  <path
                     style="fill:#ffffff"
                     d="m 628.02315,364.18846 c -0.1382,-1e-5 -0.31245,0.0223 -0.4976,0.10063 -0.13821,0.0584 -0.27962,0.1473 -0.40607,0.27376 -0.10849,0.10849 -0.20497,0.24436 -0.27336,0.40607 -0.0622,0.14713 -0.10065,0.31527 -0.10063,0.49759 -10e-6,0.17144 0.0341,0.33985 0.10063,0.4972 0.0637,0.15055 0.156,0.28872 0.27336,0.40608 0.11429,0.11429 0.25157,0.20841 0.40607,0.27375 0.15279,0.0646 0.32119,0.10064 0.4976,0.10063 0.17645,-8e-5 0.34448,-0.0364 0.49719,-0.10102 0.15443,-0.0654 0.29185,-0.15947 0.40608,-0.27376 0.11729,-0.11735 0.20973,-0.25517 0.27336,-0.40568 0.0665,-0.1573 0.10064,-0.32617 0.10063,-0.49759 10e-6,-0.18221 -0.0385,-0.35011 -0.10063,-0.4972 -0.0684,-0.16167 -0.16493,-0.29719 -0.27336,-0.40568 -0.12638,-0.12644 -0.26793,-0.21527 -0.40608,-0.27375 -0.18505,-0.0784 -0.35905,-0.10097 -0.49719,-0.10103 z"
                     transform="matrix(1.3043937,0,0,1.3043937,-505.85301,-337.02514)"
                     id="path228" />
                  <path
                     style="fill:url(#linearGradient252);fill-opacity:1"
                     d="m 637.26941,356.97972 c -0.10264,3.1e-4 -0.21678,0.0181 -0.33913,0.0602 -0.10188,0.0351 -0.20916,0.0872 -0.31852,0.15886 -0.18409,0.12067 -0.38026,0.3024 -0.54909,0.55226 l -7.23886,10.71289 c -0.10233,0.15145 -0.18357,0.31203 -0.24087,0.47462 -0.0557,0.15794 -0.0896,0.32005 -0.0959,0.47818 -0.006,0.15403 0.0137,0.31054 0.0709,0.45401 0.0568,0.14261 0.1511,0.27271 0.2892,0.36606 l 0.44966,0.30387 c 0.10231,0.0691 0.21557,0.1091 0.33199,0.12439 0.11601,0.0153 0.23238,0.006 0.34348,-0.0206 0.0371,-0.009 0.0729,-0.0193 0.11093,-0.0325 0.15704,-0.0541 0.31681,-0.1445 0.46867,-0.269 0.14158,-0.11608 0.27876,-0.26388 0.39895,-0.44174 l 6.99362,-10.34999 h 2.51887 c 0.3797,0 0.73098,-0.13425 0.99082,-0.36329 0.12947,-0.11412 0.23654,-0.25231 0.31139,-0.40885 0.075,-0.15687 0.11687,-0.33076 0.11687,-0.51344 0,-0.18294 -0.042,-0.35678 -0.11687,-0.51344 -0.075,-0.1568 -0.18214,-0.29483 -0.31139,-0.40885 -0.26068,-0.22994 -0.61223,-0.36368 -0.99082,-0.36368 h -2.87701 c -0.0648,0 -0.12652,0.004 -0.18461,0.0107 -0.044,-0.007 -0.0878,-0.0108 -0.13232,-0.0107 z"
                     transform="matrix(1.3043937,0,0,1.3043937,-505.85301,-337.02514)"
                     id="path229" />
                  <path
                     style="fill:url(#linearGradient232)"
                     d="m 633.9475,355.27855 v 4e-4 c -0.0185,9.7e-4 -0.0573,0.004 -0.10261,0.0143 -0.0958,0.0233 -0.24578,0.0572 -0.38072,0.11608 -0.0672,0.0294 -0.13858,0.068 -0.20719,0.12044 -0.067,0.0512 -0.13016,0.11451 -0.18462,0.19373 l -4.52429,6.58002 c -0.0787,0.11455 -0.13078,0.24031 -0.15728,0.36963 -0.0264,0.12891 -0.0273,0.26059 -0.004,0.38745 0.0238,0.1273 0.0721,0.24964 0.14302,0.36012 0.0716,0.11153 0.166,0.20997 0.28009,0.28842 l 0.44728,0.30742 c 0.1119,0.0769 0.23732,0.1306 0.36963,0.15808 0.12634,0.0262 0.2579,0.0285 0.38745,0.005 0.12496,-0.0229 0.24786,-0.0699 0.36052,-0.14183 0.10962,-0.07 0.20865,-0.16328 0.28841,-0.2793 l 4.52429,-6.58002 c 0.0787,-0.11462 0.13124,-0.24021 0.15767,-0.36963 0.0263,-0.12892 0.0266,-0.26088 0.003,-0.38785 -0.0238,-0.1272 -0.072,-0.24957 -0.14302,-0.36012 -0.0715,-0.11137 -0.16547,-0.20985 -0.2797,-0.28842 l -0.44688,-0.30742 c -0.0646,-0.0445 -0.13973,-0.0908 -0.22225,-0.12599 -0.0442,-0.0188 -0.0917,-0.035 -0.14183,-0.046 -0.0531,-0.0116 -0.10922,-0.0173 -0.16719,-0.0143 z"
                     transform="matrix(1.3043937,0,0,1.3043937,-505.85301,-337.02514)"
                     id="path230" />
                  <path
                     style="fill:#ffffff"
                     d="m 623.04921,348.33366 c -0.31883,0 -0.65575,0.10169 -0.9215,0.33041 -0.11679,0.10051 -0.21937,0.22652 -0.29237,0.37557 -0.0687,0.1402 -0.11093,0.30053 -0.11093,0.47461 v 0.26821 c 0,0.16676 0.0389,0.32792 0.11093,0.47501 0.0697,0.14225 0.16939,0.26933 0.29237,0.37517 0.23533,0.20254 0.55958,0.33041 0.9215,0.33041 h 0.14262 c 10e-4,0 0.006,7e-5 0.0131,0 -9.3e-4,10e-6 0.005,3.5e-4 0.0202,0 0.013,8e-5 4.00247,4e-4 4.02194,4e-4 -0.17321,-1e-5 6.89111,10e-6 6.71788,0 0.21648,0 6.93001,0 6.71354,0 -0.0665,0 2.58023,0 2.51371,0 -0.0446,0 1.54692,-4e-4 1.50228,-4e-4 1.11227,0 2.17212,0.16311 3.1361,0.46035 0.95807,0.29542 1.8188,0.72241 2.53946,1.24953 0.71659,0.52414 1.29208,1.14537 1.6873,1.83111 0.39261,0.68121 0.60852,1.42775 0.60852,2.21183 0,0.78049 -0.21398,1.52727 -0.60852,2.21183 -0.39336,0.68249 -0.96727,1.30445 -1.6873,1.8311 -0.71715,0.52455 -1.57686,0.95271 -2.53946,1.24953 -0.95915,0.29575 -2.01857,0.46035 -3.1361,0.46035 -1.06595,-0.0117 -2.15786,-0.01 -3.26287,-0.006 -0.27111,9.9e-4 -2.18596,0.006 -2.45706,0.007 -0.40022,0.002 -0.79676,0.004 -1.19169,0.004 h -0.2995 a 0.28913577,0.28914074 15.849897 0 0 -0.24602,0.13708 l -1.26577,2.05019 a 0.28913613,0.28913615 15.849639 0 0 0.24602,0.44094 h 2.47172 c 0.11919,2.6e-4 0.23827,0.002 0.35893,0.002 0.45055,1.4e-4 0.8958,-7.2e-4 1.32836,-0.002 l 9.25022,9.25022 c 0.12606,0.12606 0.27393,0.21985 0.43381,0.28049 0.15796,0.0599 0.32615,0.0867 0.49482,0.0812 0.33232,-0.0108 0.66853,-0.14762 0.93021,-0.40925 0.25739,-0.25738 0.39845,-0.59176 0.40965,-0.93021 0.006,-0.16728 -0.0209,-0.33588 -0.0812,-0.49522 -0.0601,-0.15856 -0.15335,-0.30706 -0.28049,-0.4342 l -7.3581,-7.3581 c 0.26685,-2e-4 0.53385,2.5e-4 0.80145,7.9e-4 0.4948,9.9e-4 0.98821,0.004 1.47654,0.0111 2.28941,3e-5 4.37691,-0.76251 5.97863,-2.03117 0.80102,-0.63447 1.48084,-1.39567 2.00225,-2.25105 0.5219,-0.85618 0.88477,-1.80618 1.05263,-2.81679 0.0232,-0.13955 0.0431,-0.27995 0.0586,-0.42152 0.0157,-0.1425 0.0274,-0.28557 0.0353,-0.42827 0.008,-0.14541 0.0119,-0.29044 0.0119,-0.43341 0,-0.14781 -0.004,-0.29231 -0.0119,-0.43301 -0.009,-0.14713 -0.02,-0.28919 -0.0353,-0.42827 -0.0161,-0.14594 -0.0362,-0.28678 -0.0586,-0.42152 -0.16936,-1.0196 -0.53569,-1.96879 -1.05263,-2.81679 -0.52641,-0.86353 -1.20908,-1.62246 -2.00225,-2.25065 -1.63847,-1.29765 -3.73697,-2.03117 -5.97428,-2.03117 -0.0243,1e-5 -1.70083,3.8e-4 -1.72493,3.9e-4 -0.0559,10e-6 -2.68247,3.9e-4 -2.73834,4e-4 0.19363,-10e-6 -6.97075,-10e-6 -7.16438,0 -2.4228,-10e-5 -9.20524,-6.9e-4 -11.62804,-7.9e-4 -0.002,-2e-5 -0.0102,0 -0.0103,0 -0.0527,-3.8e-4 -0.10063,-9.1e-4 -0.14064,-10e-4 z"
                     transform="matrix(1.3043937,0,0,1.3043937,-505.85301,-337.02514)"
                     id="path231" />
                </g>
              </g>
              <path
                 id="path232"
                 style="fill:#ffffff;fill-opacity:1;stroke:none;stroke-width:7.17039;stroke-linecap:round;stroke-linejoin:round;stroke-dashoffset:48.902;stroke-opacity:0.36;paint-order:markers fill stroke"
                 d="m 2700.2064,124.80413 v 22.74693 h -18.0299 v 0.69557 h 93.8056 v -0.69557 h -75.0455 v -22.74693 z"
                 transform="translate(-2529.0597,-8.9679991e-4)" />
              <path
                 id="path1"
                 style="fill:#ffffff;fill-opacity:1;stroke:none;stroke-width:7.17039;stroke-linecap:round;stroke-linejoin:round;stroke-dashoffset:48.902;stroke-opacity:0.36;paint-order:markers fill stroke"
                 d="m 2737.5238,162.24777 v -14.00114 h 18.0299 v -0.69557 h -49.4635 v 0.69557 h 30.7034 v 14.00114 z"
                 sodipodi:nodetypes="ccccccccc"
                 transform="translate(-2529.0597,-8.9679991e-4)" />
              <text
                 xml:space="preserve"
                 style="font-style:normal;font-variant:normal;font-weight:600;font-stretch:normal;font-size:10.5833px;line-height:1.7;font-family:Montserrat;-inkscape-font-specification:'Montserrat Semi-Bold';letter-spacing:2.64583px;opacity:1;fill:#ffffff;stroke-width:0.264583;stroke-linecap:round;stroke-linejoin:round;paint-order:stroke markers fill"
                 x="2746.1055"
                 y="160.73122"
                 id="text2"
                 transform="translate(-2529.0597,-8.9679991e-4)"><tspan
                   sodipodi:role="line"
                   id="tspan2"
                   style="font-size:10.5833px;letter-spacing:2.64583px;fill:#ffffff;stroke-width:0.264583"
                   x="2746.1055"
                   y="160.73122">INC.</tspan></text>
              <text
                 xml:space="preserve"
                 style="font-weight:bold;font-size:10.5833px;line-height:1.7;font-family:BetecknaGS;-inkscape-font-specification:'BetecknaGS Bold';letter-spacing:2.64583px;opacity:1;fill:#ffffff;stroke-width:0.264582;stroke-linecap:round;stroke-linejoin:round;paint-order:stroke markers fill"
                 x="152.12196"
                 y="160.62447"
                 id="text1"><tspan
                   sodipodi:role="line"
                   id="tspan1"
                   style="font-style:normal;font-variant:normal;font-weight:600;font-stretch:normal;font-size:10.5833px;font-family:Montserrat;-inkscape-font-specification:'Montserrat Semi-Bold';letter-spacing:2.64583px;fill:#ffffff;stroke-width:0.264582"
                   x="152.12196"
                   y="160.62447">MEDIA</tspan></text>
            </g>
            <g
               id="g7"
               transform="translate(5.842223e-7,-5.5628406)">
              <rect
                 style="fill:url(#linearGradient6);stroke:none;stroke-width:5.3522;stroke-linecap:round;stroke-linejoin:round"
                 id="rect3"
                 width="85.757217"
                 height="9.8190498"
                 x="30.762432"
                 y="78.650299"
                 rx="1.2113607"
                 ry="1.2113607" />
              <g
                 id="g6"
                 transform="translate(0.92503884,0.4710524)">
                <path
                   style="font-weight:bold;font-size:4.42278px;line-height:0.76;font-family:BetecknaGS;-inkscape-font-specification:'BetecknaGS Bold';text-align:center;letter-spacing:1.51263px;text-anchor:middle;fill:#ffffff;stroke-width:2.4409;stroke-linecap:round;stroke-linejoin:round"
                   d="m 34.812984,84.170711 q 0.310977,0 1.252546,0 0,0.138212 0,0.54421 -0.462146,0 -1.839946,0 0,-0.470785 0,-1.878818 0,-0.336891 0,-1.343247 0.14685,0 0.5874,0.0043 0,0.669464 0,2.673536 z m 3.041599,-2.686493 q 0.449189,0 1.796755,0 0,0.138212 0,0.552848 -0.306658,0 -1.213673,0 0,0.172764 0,0.691059 0.215956,0 0.868143,0 0,0.133893 0,0.544209 -0.215956,0 -0.868143,0 0,0.228914 0,0.915654 0.310976,0 1.252545,0 0,0.133893 0,0.535571 -0.457827,0 -1.835627,0 0,-0.470784 0,-1.891775 0,-0.336892 0,-1.347566 z m 3.482149,0.03023 q 0.548529,0 2.202752,0 0,0.133893 0,0.531252 -0.202999,0 -0.807676,0.0043 -0.0043,0.669464 -0.01728,2.673536 -0.142531,0 -0.583081,0 0,-0.0216 0,-0.0907 0.0043,-0.647868 0.01296,-2.582834 -0.202999,0 -0.807676,-0.0043 0,-0.09502 0,-0.375764 0,-0.03887 0,-0.155488 z m 3.698106,0.03023 q 0,-0.155489 0.103659,-0.24619 0.103659,-0.09502 0.168445,-0.09502 0.06911,-0.0043 0.07775,-0.0043 0.116616,0 0.220275,0.0907 0.103659,0.08638 0.103659,0.254828 0,0.172765 -0.0907,0.362806 -0.0907,0.185722 -0.185722,0.315296 -0.02592,0.03455 -0.07343,0.09934 -0.01728,-0.02592 -0.07343,-0.103659 -0.250509,-0.380083 -0.250509,-0.673783 z m 3.775849,-0.06911 q 0.177084,0.04319 0.34553,0.177084 0.02592,0.01728 0.06911,0.05183 -0.07774,0.112297 -0.306658,0.440551 -0.01728,-0.01296 -0.07343,-0.06047 -0.159807,-0.133893 -0.405997,-0.133893 -0.05615,0 -0.103659,0.0043 -0.129574,0.01728 -0.211637,0.09934 -0.08638,0.08206 -0.09502,0.14685 -0.0086,0.05615 -0.0086,0.06479 0,0.0907 0.08638,0.19868 0.08206,0.112297 0.2937,0.185722 0.120935,0.04319 0.358487,0.125254 0.133893,0.04751 0.259147,0.129574 0.125255,0.08206 0.237552,0.211637 0.112297,0.120935 0.172765,0.272105 0.06479,0.14685 0.06479,0.328253 0,0.01296 0,0.120935 -0.0043,0.103659 -0.09502,0.302339 -0.280743,0.608996 -1.058185,0.608996 -0.14685,0 -0.310977,-0.02592 -0.177084,-0.03455 -0.298019,-0.06911 -0.125254,-0.03887 -0.177084,-0.06047 -0.05615,-0.02591 -0.202999,-0.107978 -0.0216,-0.0086 -0.06047,-0.03023 0.03023,-0.151169 0.112297,-0.604677 0.02592,0.01296 0.09934,0.04751 0.349848,0.159807 0.596038,0.224594 0.138212,0.03455 0.267786,0.03455 0.129573,0 0.263466,-0.06047 0.129574,-0.06479 0.202999,-0.181403 0.06047,-0.09502 0.06047,-0.198679 0,-0.06479 -0.05615,-0.190042 -0.05615,-0.125254 -0.259147,-0.185722 -0.263467,-0.116616 -0.349849,-0.142531 -0.298019,-0.0907 -0.488061,-0.254828 -0.190041,-0.164127 -0.254828,-0.332572 -0.06047,-0.172765 -0.06047,-0.319615 0,-0.05615 0.01728,-0.185722 0.01728,-0.129574 0.129574,-0.29802 0.112297,-0.168446 0.323934,-0.272104 0.207317,-0.103659 0.462146,-0.103659 0.276423,0 0.453507,0.04319 z m 7.270957,1.753563 q -0.190041,0.436231 -0.751527,1.749244 -0.2937,-0.872462 -1.187758,-3.48985 0.142531,0 0.574443,0 0.164127,0.475104 0.652187,1.900414 0.133893,-0.315296 0.548529,-1.265503 0.03455,-0.0907 0.14685,-0.362806 0.03887,0.09502 0.151169,0.367125 0.138212,0.315296 0.544209,1.252545 0.164127,-0.475103 0.647868,-1.896094 0.142531,0 0.570124,0.0043 -0.298019,0.872463 -1.187758,3.485531 -0.177084,-0.436231 -0.708336,-1.744925 z m 4.963607,-1.27846 q -0.233232,0 -0.418954,0.09502 -0.190042,0.09502 -0.29802,0.24619 -0.116616,0.159807 -0.177084,0.362806 -0.06047,0.190041 -0.06047,0.388721 0,0.01728 0,0.03023 0.0043,0.207317 0.07774,0.414635 0.06911,0.202999 0.19436,0.362806 0.116617,0.15117 0.315296,0.24619 0.19868,0.09502 0.440551,0.09502 0.250509,0 0.457826,-0.09934 0.202999,-0.0907 0.332573,-0.24619 0.129573,-0.159807 0.198679,-0.362806 0.07343,-0.202999 0.07774,-0.423274 0,-0.0043 0,-0.0086 0,-0.207318 -0.07774,-0.401678 -0.07343,-0.202999 -0.207318,-0.362806 -0.129573,-0.15117 -0.349848,-0.24619 -0.211637,-0.0907 -0.475104,-0.0907 -0.01728,0 -0.03023,0 z m 0.777442,-0.384402 q 0.336892,0.142531 0.53989,0.380083 0.207318,0.237552 0.315296,0.531252 0.112297,0.2937 0.112297,0.600358 0,0.05183 -0.0043,0.155488 0,0.164127 -0.112297,0.457827 -0.107978,0.2937 -0.310977,0.531252 -0.202998,0.233232 -0.531252,0.375763 -0.328253,0.142531 -0.721293,0.142531 -0.384402,0 -0.699697,-0.14685 -0.319615,-0.142531 -0.513976,-0.375763 -0.190041,-0.237552 -0.289381,-0.531252 -0.103659,-0.298019 -0.103659,-0.604677 0,-0.310977 0.09934,-0.608996 0.09934,-0.2937 0.289381,-0.531252 0.190041,-0.233233 0.501018,-0.375764 0.310977,-0.142531 0.68674,-0.142531 0.410317,0 0.742889,0.142531 z m 3.628999,-0.116616 q 0.0086,0 0.0216,0 0.241871,0 0.436231,0.09502 0.194361,0.09502 0.306658,0.259147 0.116616,0.155488 0.151169,0.315296 0.03455,0.155488 0.03455,0.272105 0,0.07774 -0.0216,0.211636 -0.0216,0.138212 -0.120936,0.302339 -0.103659,0.155488 -0.233232,0.254828 0.250509,0.518295 0.751527,1.559203 -0.159808,0 -0.643549,0 -0.168446,-0.341211 -0.665145,-1.3778 -0.03023,0 -0.06047,0 -0.125254,0 -0.375763,0.0043 0.0043,0.34553 0.01728,1.373481 -0.14685,0 -0.5874,0 -0.0043,-0.816314 -0.01296,-3.265256 0.250509,-0.0043 1.002037,-0.0043 z m -0.418955,0.544209 q 0,0.202999 0,0.811995 0.09934,0 0.39304,0 0.112297,0 0.19436,-0.06047 0.08638,-0.06047 0.129574,-0.14685 0.04319,-0.0907 0.04751,-0.14685 0,-0.06047 0,-0.06911 0,-0.09934 -0.03455,-0.185722 -0.03023,-0.08638 -0.116616,-0.142531 -0.07774,-0.06047 -0.19868,-0.06047 -0.138211,0 -0.414635,0 z m 4.75629,-0.479422 q 0.181403,0 0.734251,0 -0.328254,0.380083 -1.304375,1.516011 0.39304,0.427593 1.576479,1.706053 -0.185722,0 -0.751527,0 -0.332572,-0.367125 -1.330289,-1.455544 0,0.362807 0,1.455544 -0.14685,0 -0.587401,0 0,-0.470784 0,-1.883137 0,-0.332572 0,-1.338927 0.14685,0 0.587401,0 0,0.319615 0,1.282779 0.267785,-0.319615 1.075461,-1.282779 z m 5.577861,0 q 0.548529,0 2.202752,0 0,0.133893 0,0.531252 -0.202999,0 -0.807675,0.0043 -0.0043,0.669464 -0.01728,2.673536 -0.142531,0 -0.583081,0 0,-0.0216 0,-0.0907 0.0043,-0.647868 0.01296,-2.582834 -0.202999,0 -0.807676,-0.0043 0,-0.09502 0,-0.375764 0,-0.03887 0,-0.155488 z m 5.261627,0.436231 q -0.233233,0 -0.418955,0.09502 -0.190041,0.09502 -0.298019,0.24619 -0.116617,0.159807 -0.177084,0.362806 -0.06047,0.190041 -0.06047,0.388721 0,0.01728 0,0.03023 0.0043,0.207317 0.07774,0.414635 0.06911,0.202999 0.194361,0.362806 0.116616,0.15117 0.315296,0.24619 0.198679,0.09502 0.44055,0.09502 0.250509,0 0.457827,-0.09934 0.202998,-0.0907 0.332572,-0.24619 0.129574,-0.159807 0.19868,-0.362806 0.07343,-0.202999 0.07774,-0.423274 0,-0.0043 0,-0.0086 0,-0.207318 -0.07774,-0.401678 -0.07343,-0.202999 -0.207318,-0.362806 -0.129574,-0.15117 -0.349849,-0.24619 -0.211637,-0.0907 -0.475103,-0.0907 -0.01728,0 -0.03023,0 z m 0.777442,-0.384402 q 0.336891,0.142531 0.53989,0.380083 0.207318,0.237552 0.315296,0.531252 0.112297,0.2937 0.112297,0.600358 0,0.05183 -0.0043,0.155488 0,0.164127 -0.112297,0.457827 -0.107979,0.2937 -0.310977,0.531252 -0.202999,0.233232 -0.531252,0.375763 -0.328253,0.142531 -0.721293,0.142531 -0.384402,0 -0.699698,-0.14685 -0.319615,-0.142531 -0.513975,-0.375763 -0.190042,-0.237552 -0.289381,-0.531252 -0.103659,-0.298019 -0.103659,-0.604677 0,-0.310977 0.09934,-0.608996 0.09934,-0.2937 0.289381,-0.531252 0.190042,-0.233233 0.501019,-0.375764 0.310976,-0.142531 0.68674,-0.142531 0.410316,0 0.742889,0.142531 z m 5.559645,2.55692 q 0,0.120935 -0.116616,0.181403 -0.207318,0.190042 -0.488061,0.29802 -0.280743,0.103658 -0.552847,0.120935 -0.103659,0.01296 -0.207318,0.01296 -0.159808,0 -0.29802,-0.02159 -0.250509,-0.03455 -0.405997,-0.112297 -0.418955,-0.220276 -0.660825,-0.565805 -0.237552,-0.341211 -0.276424,-0.704017 -0.0086,-0.08638 -0.0086,-0.168446 0,-0.272104 0.0907,-0.552847 0.112297,-0.362806 0.354168,-0.63923 0.241871,-0.285062 0.604677,-0.453508 0.341211,-0.155488 0.716974,-0.155488 0.03455,0 0.06479,0 0.405997,0.01296 0.695378,0.151169 0.107978,0.04751 0.155489,0.08638 0.04319,0.03023 0.142531,0.112298 0.0216,0.0216 0.07343,0.06479 -0.116616,0.107978 -0.466465,0.418955 -0.01296,-0.0216 -0.05615,-0.08638 -0.03887,-0.05615 -0.220275,-0.112297 -0.19868,-0.06479 -0.336891,-0.07343 -0.01296,0 -0.03887,0 -0.310976,0 -0.604677,0.185723 -0.319614,0.198679 -0.466465,0.513975 -0.107978,0.241871 -0.107978,0.479423 0,0.181403 0.06479,0.358487 0.155489,0.410316 0.583082,0.613315 0.19436,0.0907 0.414635,0.09502 0.01728,0 0.0216,0 0.211637,0 0.397359,-0.06479 0.181403,-0.06047 0.349849,-0.177084 0.0043,-0.159808 0.01728,-0.483742 -0.155488,0 -0.608996,0 0.0043,-0.129574 0.0043,-0.505337 0.2937,0 1.174801,-0.0043 -0.0043,0.298019 -0.0043,1.187758 z m 1.715629,-2.638983 q 0.449189,0 1.796754,0 0,0.138212 0,0.552848 -0.306657,0 -1.213673,0 0,0.172764 0,0.691059 0.215956,0 0.868144,0 0,0.133893 0,0.544209 -0.215956,0 -0.868144,0 0,0.228914 0,0.915654 0.310977,0 1.252546,0 0,0.133893 0,0.535571 -0.457827,0 -1.835627,0 0,-0.470784 0,-1.891775 0,-0.336892 0,-1.347566 z m 3.482151,0.03023 q 0.548528,0 2.202752,0 0,0.133893 0,0.531252 -0.202999,0 -0.807676,0.0043 -0.0043,0.669464 -0.01728,2.673536 -0.142531,0 -0.583082,0 0,-0.0216 0,-0.0907 0.0043,-0.647868 0.01296,-2.582834 -0.202999,0 -0.807676,-0.0043 0,-0.09502 0,-0.375764 0,-0.03887 0,-0.155488 z m 5.73673,-0.03455 q 0.14685,0 0.578762,0 0,0.811995 0,3.24366 -0.142531,0 -0.578762,0 0,-0.341211 0,-1.373481 -0.319615,0 -1.282779,-0.0043 0,0.34553 0,1.3778 -0.14685,0 -0.587401,0 0,-0.501018 0,-2.01703 0,-0.302338 0,-1.209354 0.14685,0 0.583082,0 0,0.103659 0.0043,0.410317 0,0.224594 0,0.898377 0.319615,0 1.282779,0 0,-0.332572 0,-1.32597 z m 2.411008,0.0043 q 0.44919,0 1.79676,0 0,0.138212 0,0.552848 -0.30666,0 -1.21368,0 0,0.172764 0,0.691059 0.21596,0 0.86815,0 0,0.133893 0,0.544209 -0.21596,0 -0.86815,0 0,0.228914 0,0.915654 0.31098,0 1.25255,0 0,0.133893 0,0.535571 -0.45783,0 -1.83563,0 0,-0.470784 0,-1.891775 0,-0.336892 0,-1.347566 z m 4.63103,-0.03455 q 0.009,0 0.0216,0 0.24187,0 0.43623,0.09502 0.19436,0.09502 0.30666,0.259147 0.11661,0.155488 0.15116,0.315296 0.0346,0.155488 0.0346,0.272105 0,0.07774 -0.0216,0.211636 -0.0216,0.138212 -0.12093,0.302339 -0.10366,0.155488 -0.23324,0.254828 0.25051,0.518295 0.75153,1.559203 -0.15981,0 -0.64355,0 -0.16844,-0.341211 -0.66514,-1.3778 -0.0302,0 -0.0605,0 -0.12525,0 -0.37576,0.0043 0.004,0.34553 0.0173,1.373481 -0.14685,0 -0.5874,0 -0.004,-0.816314 -0.013,-3.265256 0.25051,-0.0043 1.00204,-0.0043 z m -0.41895,0.544209 q 0,0.202999 0,0.811995 0.0993,0 0.39304,0 0.11229,0 0.19436,-0.06047 0.0864,-0.06047 0.12957,-0.14685 0.0432,-0.0907 0.0475,-0.14685 0,-0.06047 0,-0.06911 0,-0.09934 -0.0345,-0.185722 -0.0302,-0.08638 -0.11662,-0.142531 -0.0777,-0.06047 -0.19868,-0.06047 -0.13821,0 -0.41463,0 z"
                   id="text3"
                   aria-label="LET'S WORK TOGETHER" />
                <path
                   id="rect4"
                   style="fill:#ffffff;stroke-width:2.09746;stroke-linecap:round;stroke-linejoin:round"
                   d="m 111.20642,83.151393 -1.71375,-1.053526 v 2.107058 z"
                   sodipodi:nodetypes="cccc" />
              </g>
            </g>
          </g>
        </g>
      </g>
    </g>
  </g>
</svg>
