<?xml version="1.0" encoding="UTF-8" standalone="no"?>
<!-- Uploaded to: SVG Repo, www.svgrepo.com, Generator: SVG Repo Mixer Tools -->

<svg
   fill="#000000"
   version="1.1"
   id="Layer_1"
   width="800px"
   height="800px"
   viewBox="0 0 72 72"
   enable-background="new 0 0 72 72"
   xml:space="preserve"
   sodipodi:docname="go-svgrepo-com.svg"
   inkscape:version="1.4 (e7c3feb, 2024-10-09)"
   xmlns:inkscape="http://www.inkscape.org/namespaces/inkscape"
   xmlns:sodipodi="http://sodipodi.sourceforge.net/DTD/sodipodi-0.dtd"
   xmlns="http://www.w3.org/2000/svg"
   xmlns:svg="http://www.w3.org/2000/svg"><defs
   id="defs1" /><sodipodi:namedview
   id="namedview1"
   pagecolor="#ffffff"
   bordercolor="#000000"
   borderopacity="0.25"
   inkscape:showpageshadow="2"
   inkscape:pageopacity="0.0"
   inkscape:pagecheckerboard="0"
   inkscape:deskcolor="#d1d1d1"
   inkscape:zoom="0.5"
   inkscape:cx="490"
   inkscape:cy="422"
   inkscape:window-width="1920"
   inkscape:window-height="1003"
   inkscape:window-x="1920"
   inkscape:window-y="0"
   inkscape:window-maximized="1"
   inkscape:current-layer="Layer_1" />
<path
   d="m 43.575087,15.44068 c -1.404088,0 -2.723482,0.546588 -3.716421,1.538909 L 24.707371,32.130884 c -1.01767,1.017051 -1.574138,2.42423 -1.532714,3.867269 -0.04204,1.444893 0.515044,2.852675 1.532714,3.870963 l 15.151838,15.151295 c 0.992321,0.992321 2.31179,1.538909 3.715878,1.538909 1.404087,0 2.723448,-0.546588 3.715769,-1.538909 2.048941,-2.048941 2.048941,-5.383248 0,-7.43219 L 35.702634,36 47.290856,24.41243 c 2.048941,-2.048941 2.048941,-5.383248 0,-7.432189 -0.992939,-0.992939 -2.3123,-1.539561 -3.715769,-1.539561 z"
   style="stroke-width:0.152242;stroke-linecap:round;stroke-linejoin:round"
   id="path2" />
</svg>
